<?xml version="1.0" encoding="UTF-8"?>
<svg id="Layer_2" data-name="Layer 2" xmlns="http://www.w3.org/2000/svg" viewBox="0 0 201.57 121.59">
  <g id="Layer_1-2" data-name="Layer 1">
    <g>
      <path d="M14.72,91.97c0,.34.01.67.04.99-.02,0-.07.04-.15.11h-1.42s-.04,0-.06.02c-.01.01-.04.02-.09.02-.08,0-.16,0-.26.02-.1.01-.19.02-.26.02-.58,0-1.12,0-1.63-.02-.51-.01-.97,0-1.37.02h-.15l.04.04c-.85.02-1.69.04-2.53.05-.84.01-1.69.03-2.57.05-.02-.03-.05-.04-.07-.04h.04s0,.9,0,.9v.15c-.03.53-.05,1.07-.08,1.63s-.05,1.16-.08,1.78c.02.03.05.18.07.45,0,.2,0,.4-.02.6-.01.2-.02.4-.02.6,0,.53-.02,1.04-.06,1.54-.04.5-.06,1-.06,1.5.8-.02,1.62-.03,2.47-.03s1.71,0,2.59,0c.15-.02.29-.04.41-.04h.38l.11.11h.04c-.03.3-.03.61-.02.92.01.31.02.62.02.92-.05.03-.09.04-.13.04s-.08.02-.13.07h-.75s-.04,0-.06.02c-.01.01-.04.02-.09.02h-.17c-.06,0-.12.01-.17.04-.38,0-.72,0-1.05-.02s-.62,0-.9.02c-.08,0-.12,0-.13.02-.01.01,0,.02.06.02-.43.02-.85.04-1.28.05-.43.01-.85.02-1.28.02-.03.38-.04.74-.06,1.09-.01.35-.02.7-.02,1.05,0,.22,0,.34.02.34s.03-.03.06-.08c-.06,2.05-.11,4.09-.17,6.13-.06,2.04-.11,4.09-.17,6.17-.03.07-.08.15-.15.22h.11c.05.05.03.09-.06.13-.09.04-.11.08-.06.13h.15c0,.15,0,.29-.02.41s-.03.25-.06.38c-.05.03-.13.04-.23.04-.38-.03-.75-.01-1.12.04s-.76.1-1.16.15l-.04-.04c-.08-.02-.09-.09-.04-.19-.05.03-.08.04-.09.04s-.04.03-.09.08c-.15-.15-.26-.25-.34-.3-.12-.2-.16-.43-.11-.68v-.04s0-.11,0-.19c0-.07.01-.17.04-.3.03-1.2.06-2.43.08-3.69.03-1.26.07-2.57.12-3.92v-.15c0-.32-.01-.65-.03-.97-.02-.32-.01-.65.04-.97h.11c.05-2.03.12-4.07.2-6.15.08-2.08.15-4.15.2-6.22.03-.5.04-.99.04-1.48,0-.49.02-.97.04-1.44v-.38s-.04-.15-.04-.3c0-.1-.01-.18-.04-.24-.03-.06-.04-.11-.04-.13,0-.35-.01-.69-.03-1.01-.02-.32,0-.66.08-1.01.02,0,.14-.01.34-.04.2-.02.39-.04.56-.04.05-.05.09-.07.13-.06.04.01.11.02.21.02.15-.05.34-.07.56-.05.22.01.44.03.64.06l.08-.04c.1.02.35.04.75.04,1.38-.02,2.84-.03,4.39-.03,1.55,0,3.11,0,4.69-.03h1.2s.04,0,.04,0l.07.07c0,.33,0,.66,0,.99Z"/>
      <path d="M28.03,90.89c0,.39,0,.77.02,1.13.01.36.02.73.02,1.12-.05.05-.09.1-.11.15-.2-.02-.42-.04-.66-.04-.24,0-.49,0-.77,0-.03.03-.09.06-.19.11h-.45c-.3,0-.48,0-.54,0-.06,0-.1,0-.11,0s-.03,0-.06.02c-.03.01-.14.02-.34.02-.12,0-.19,0-.19.02,0,.01.02.02.08.02-.8.02-1.59.05-2.38.07-.79.02-1.58.03-2.38.03v.49s0,.08,0,.08v.15c-.03.52-.04,1.06-.04,1.61,0,.55,0,1.15,0,1.8v.45s0,1.27,0,1.27c0,.88-.02,1.8-.04,2.78-.03.97-.06,1.86-.08,2.66.4,0,.77,0,1.12-.02.35-.01.71-.02,1.07-.04.36,0,.74-.02,1.14-.03.4-.01.85-.02,1.35-.02h.75c.07.08.12.12.15.12v.04c0,.38,0,.7,0,.94,0,.24.01.57.04.97-.1,0-.18.03-.23.08h-.86c-.05.05-.1.07-.15.07h-1.31c-.1.02-.12.06-.08.11-.5,0-1,0-1.5.02-.5.01-1,.03-1.5.05,0,1.83-.05,3.6-.13,5.33l.04.04.04.04v.07c0,.15,0,.3-.02.45s-.02.32-.02.53h.04v.04c0,.05.01.07.04.07v.34c-.03.35-.05.69-.06,1.01-.01.33-.02.62-.02.9,0,.05.02.07.08.07v2.14c1.07,0,2.15,0,3.24,0,1.09-.01,2.27-.01,3.54,0l.3-.04h.34l.08.08c0,.43,0,.82,0,1.2s.01.75.04,1.12c-.02,0-.08.04-.15.11h-.79s-.01.04-.04.04-.04,0-.06.02c-.01.01-.03.02-.06.02h-.45c-.6,0-1.04,0-1.33-.02s-.63,0-1.03.02c-.12.03-.16.05-.11.07-.65.02-1.3.04-1.95.05-.65.01-1.27.02-1.88.01-.05.03-.09.04-.11.04s-.06.01-.11.04c-.3-.05-.6-.08-.9-.08s-.6.04-.9.11v-.04c-.07-.02-.09-.1-.04-.22-.05.03-.08.04-.09.06-.01.01-.04.03-.09.06-.05-.08-.12-.16-.22-.26-.1-.18-.14-.35-.11-.53v-.53c.05-1.32.1-2.68.12-4.07.03-1.39.07-2.8.12-4.26,0-.28,0-.54-.02-.79s0-.5.06-.75c.05-2.05.11-4.12.17-6.21.05-2.09.11-4.19.17-6.32.03-.5.05-.99.06-1.48.01-.49.03-.98.06-1.48v-.11s0-.04,0-.04v-.04s-.04-.09-.04-.11c0-.15-.01-.26-.04-.34,0-.22-.02-.36-.07-.41.03-.35.03-.69,0-1.03-.02-.34-.01-.68.04-1.03h.26c.12-.05.28-.08.45-.09.17-.01.35-.02.53-.02h.04c.1,0,.21,0,.34.02.12.01.29.02.49.02.67,0,1.28,0,1.8-.01.53-.01,1.05-.02,1.58-.02.52,0,1.08,0,1.67-.01.59-.01,1.28-.02,2.08-.01.2,0,.41,0,.62-.02.21-.01.42-.02.62-.02h.04s.01.05.04.08ZM19.74,107.11h.04c0,.08-.01.08-.04,0Z"/>
      <path d="M30.99,120.83c-.12-.2-.16-.43-.11-.68v-.21c0-.09.01-.18.04-.28.05-1.2.09-2.47.12-3.82.03-1.35.07-2.69.12-4.01,0-.05,0-.08-.02-.09-.01-.01-.02-.03-.02-.06,0-.35,0-.68-.02-.99-.01-.31,0-.63.06-.96.02.03.05.03.08,0,.05-2.03.12-4.05.2-6.09.08-2.04.15-4.08.2-6.13.03-.5.04-.99.04-1.46s.01-.95.04-1.43v-.19s0-.19,0-.19c-.03-.07-.04-.17-.04-.3,0-.1-.01-.18-.04-.22-.02-.05-.04-.1-.04-.15,0-.32-.01-.64-.04-.94-.02-.3-.01-.62.04-.97.05.03.12.03.21.02.09-.01.19-.03.32-.06.05-.05.11-.07.19-.07.03.03.08.04.15.04.3-.02.65-.02,1.05.02.4.04.76.05,1.09.02h.3s.04.08.04.08v2.18s-.04.07-.04.07v.64s0,.07,0,.07v.07c-.03.55-.05,1.1-.06,1.65-.01.55-.05,1.12-.1,1.72.02.05.04.1.06.15.01.05.02.15.02.3v1.2c-.06,1.38-.11,2.69-.16,3.96-.05,1.26-.09,2.37-.12,3.32,0,.22,0,.34.02.36.01.01.03,0,.06-.06-.06,2.03-.1,4.1-.15,6.22-.04,2.12-.09,4.2-.15,6.22-.05.03-.09.06-.11.09-.03.04-.05.07-.08.09h.11c.05.05.03.1-.06.15-.09.05-.11.1-.06.15h.19c-.05.3-.1.55-.15.75-.08,0-.14.01-.19.04-.38-.03-.78-.02-1.22.03s-.83.1-1.18.15c-.03,0-.04-.01-.04-.04-.05-.05-.05-.11,0-.19-.05,0-.13.03-.23.07-.05-.05-.11-.09-.17-.13-.06-.04-.12-.08-.17-.13ZM31.42,86.74v-.11c.08-.02.15-.04.22-.04h.11s.11.04.17.04.13.03.21.08c0-.05.01-.08.04-.08s.03-.01.02-.04c-.01-.02,0-.04.02-.04.12.05.28.08.47.08s.33.02.43.04c.02,0,.04-.02.04-.07.23.03.53.05.9.08.38.03.69.06.94.12v.08s.04.01.04.04v-.15c.05.05.08.09.08.11,0,.1.01.17.04.22.05.38.05.73.02,1.07s-.03.68.02,1.03v.04c0,.05-.01.08-.04.08,0,.02,0,.05.02.07.01.03.02.06.02.11,0,.05-.01.1-.04.15s-.04.1-.04.15v.15h-.04s-.09,0-.13.02c-.04.01-.08.02-.13.02h-.11s-.14-.05-.26-.08-.22-.04-.3-.04l-.04.07h-.15c-.15-.05-.29-.06-.43-.04-.14.02-.27.02-.39,0v.11c-.2-.05-.43-.07-.69-.06s-.52,0-.77-.06v-.07.04-.07.11s-.04-.04-.06-.04-.03-.03-.06-.07v-.45c-.05-.38-.07-.72-.05-1.05.01-.32,0-.66-.05-1.01v-.3s0-.22,0-.22Z"/>
      <path d="M43.96,109.42c.89,1.85,1.81,3.75,2.76,5.71.95,1.95,1.87,3.87,2.76,5.74-.48,0-.94,0-1.41-.02-.46-.01-.93-.02-1.41-.02h-.26c-.47-.93-.95-1.92-1.42-2.99-.47-1.06-.95-2.09-1.42-3.1-.05-.1-.09-.15-.11-.15-.15-.28-.31-.56-.49-.85-.17-.29-.32-.61-.45-.96.05,0,.07-.01.07-.04-.27-.58-.56-1.15-.86-1.73-.3-.58-.6-1.15-.9-1.73-.05,1.72-.09,3.44-.11,5.14-.02,1.7-.04,3.41-.07,5.14-.03.05-.06.09-.09.11-.04.03-.06.06-.06.11h.11c.02.05,0,.09-.08.11-.07.03-.09.06-.04.11,0,.05.05.07.15.07-.03.1-.04.22-.06.36-.01.14-.04.27-.09.39v.11s-.12.04-.3.04c-.28-.03-.56-.02-.84.03-.29.05-.59.1-.92.15v-.04s-.04-.07-.04-.22c-.03.05-.06.07-.09.07s-.06.03-.06.08c-.05-.05-.09-.1-.13-.13s-.08-.08-.13-.13c-.1-.28-.12-.51-.07-.71v-.53c.05-1.28.09-2.57.12-3.88.03-1.31.07-2.64.12-3.99-.02,0-.04-.02-.04-.07v-.07c0-.35-.01-.69-.03-1.01-.03-.32,0-.65.08-.97h.04c.06-2.1.11-4.22.17-6.36.06-2.14.11-4.28.17-6.43,0-.5,0-1,.02-1.5.01-.5.02-1,.02-1.5v-.38s0-.34,0-.34c-.05-.25-.07-.39-.07-.41,0-.32-.01-.66-.04-.99-.02-.34-.01-.69.04-1.07.02.07.07.07.15,0h.23s.06,0,.11-.02c.05-.01.1-.02.15-.02.03-.03.06-.04.11-.04h.15c.23,0,.47,0,.73-.02s.53-.03.81-.05h.15s.04,0,.04,0v.07s0,.04,0,.04h.86c.22,0,.47,0,.73,0,.26,0,.53.01.81.04.05,0,.1.01.15.04.05.03.1.04.15.04.12,0,.25,0,.38.02.12.01.25.03.38.06.07,0,.15,0,.22.02.08.01.15.02.22.02.05.05.12.08.21.08s.16.01.21.04c.12.05.26.1.41.13.15.04.3.08.45.13.12.1.25.18.37.23s.26.14.41.26c.08.05.15.12.22.19.05.03.1.06.15.09.05.04.1.08.15.13.05.05.08.09.09.13.01.04.03.08.06.13,0,.05.02.07.08.07l.04.04c.05.15.07.21.07.19.03.12.06.29.11.49l.11.45c.05.28.08.53.09.75.01.23.04.49.09.79,0,.25,0,.51.02.77.01.26,0,.53-.02.81,0,.15-.03.3-.08.45,0,.2-.04.39-.11.56-.05.15-.09.29-.13.43s-.08.27-.13.39l-.04.07v.04l-.08.11-.08.26-.15.26-.15.22c-.1.15-.2.29-.3.43-.1.14-.21.27-.34.39-.4.53-.82.92-1.24,1.2-.05.1-.09.17-.13.21-.04.04-.07.08-.09.13l-.19.19s-.04.04-.06.04-.03.03-.06.08l-.45.41-.04.08-.11.04-.23.19c-.13.1-.26.19-.39.28-.14.09-.27.17-.39.24l-.41.22-.15.11-.26.15-.49.19c-.1.07-.25.14-.45.19l-.26.19c.45.9.87,1.75,1.27,2.55.4.8.77,1.55,1.12,2.25.1.2.16.3.17.3s.02-.04.02-.11ZM44.75,92.96c-.07-.05-.14-.07-.19-.07l-.08-.04c-.1-.03-.18-.04-.24-.04s-.14-.03-.24-.08c-.05,0-.09,0-.13-.02-.04-.01-.09-.02-.17-.02h-.56s-.04,0-.04,0c-.08,0-.16,0-.24,0-.09,0-.16-.01-.21-.04h-1.5s0,.33,0,.33v.71s0,.07,0,.07v.15c-.03.53-.05,1.08-.06,1.65-.01.57-.04,1.18-.06,1.8,0,.05.01.09.04.13.02.04.04.16.04.36,0,.2,0,.4,0,.6,0,.2-.01.43-.04.68-.03.47-.04.96-.04,1.44,0,.49-.01.97-.04,1.44,0-.03.01-.04.04-.04l.23-.15.19-.07.3-.11c.1-.1.19-.17.28-.21.09-.04.17-.08.24-.13s.15-.1.23-.15c.08-.05.14-.1.19-.15.1-.05.18-.1.24-.15.06-.05.12-.1.17-.15l.11-.11.11-.11.22-.26.45-.45c.1-.07.19-.15.26-.22s.15-.15.23-.22l.15-.26.23-.15c.15-.2.26-.34.34-.41.05-.12.1-.2.15-.22.02-.05.04-.09.06-.11.01-.03.03-.06.06-.11l.08-.15v-.04l.04-.11.08-.15.23-.56c0-.05.02-.12.08-.21.05-.09.08-.15.08-.21l.04-.11v-.07l.04-.3c0-.2,0-.39,0-.56,0-.17-.02-.35-.07-.52v-.26s-.15-.45-.15-.45v-.26c-.02-.08-.04-.16-.04-.26l-.04-.26-.04-.07v-.11l-.04-.04s-.05-.01-.08-.04c-.05-.03-.08-.04-.09-.04s-.04-.01-.09-.04c-.08-.08-.24-.14-.49-.19l-.23-.08Z"/>
      <path d="M69.43,121c-.53.02-1.06.06-1.59.11-.54.05-1.07.1-1.59.14-.03-.03-.05-.04-.08-.04-.5-1.83-.98-3.54-1.45-5.14-.47-1.6-.96-3.3-1.45-5.1-.4.03-.78.04-1.14.05s-.69.02-.99.02h-.37s.07.04.07.04c-.5-.03-.99-.04-1.46-.04-.48,0-.95-.03-1.42-.08-.5,1.8-1,3.5-1.48,5.12s-.97,3.29-1.47,5.04l-.08.08c-.52-.05-1.06-.11-1.59-.17-.54-.06-1.08-.11-1.63-.13.03-.05.04-.1.04-.15v-.07c.05-.05.09-.11.11-.17.02-.06.06-.15.11-.28.48-1.67,1-3.43,1.57-5.28.57-1.85,1.15-3.73,1.74-5.64.59-1.91,1.18-3.84,1.78-5.79.59-1.95,1.17-3.88,1.72-5.81.15-.5.3-1,.44-1.5.14-.5.28-.99.43-1.46.15-.57.31-1.14.47-1.71.16-.56.35-1.13.55-1.71l.04-.07.08-.19.11.26,1.38,4.88.04-.07c.07.35.16.69.24,1.03.09.34.17.67.24.99,1.06,3.88,2.18,7.69,3.34,11.45,1.17,3.75,2.21,7.33,3.12,10.73.05.12.08.23.09.3.01.08.04.14.09.19v.19ZM58.55,108.56c.67.03,1.36.03,2.06,0s1.4-.04,2.1-.03c-.12-.47-.25-1.02-.39-1.65-.14-.62-.28-1.28-.45-1.95-.16-.67-.32-1.36-.48-2.06-.16-.7-.33-1.36-.5-1.99-.02-.1-.05-.27-.09-.51-.04-.24-.07-.41-.09-.51,0,.03-.02.11-.06.26s-.06.24-.06.26c-.2.67-.4,1.39-.59,2.15s-.37,1.5-.53,2.23c-.17.72-.32,1.42-.47,2.08s-.3,1.23-.45,1.71Z"/>
      <path d="M84.65,120.7c-.15-.1-.2-.33-.15-.68v-.49c.08-1.23.13-2.48.16-3.77.03-1.29.07-2.61.12-3.96,0-.1-.03-.15-.08-.15.03-.35.03-.69.02-1.01-.01-.33,0-.66.06-1.01h.08c.06-2.05.12-4.12.18-6.21.07-2.09.15-4.19.26-6.29,0-.5,0-1,.02-1.5.01-.5.02-1,.02-1.5v-.19s0-.15,0-.15c0-.17,0-.28,0-.3v-.3s-.02-.04-.07-.04l-.04-.04h-.04v-.11c0-.32-.01-.65-.03-.98-.02-.32.01-.66.12-1.01.03.03.09.03.19.02.1-.01.22-.03.36-.05.14-.02.27-.04.38-.06.12,0,.19,0,.21.02h.31c.05.03.11.04.19.04s.15,0,.23,0c.49,0,1.04,0,1.67-.02.63,0,1.27-.01,1.92-.01.65,0,1.29,0,1.93-.01.64,0,1.22-.02,1.74-.01h.71c.12.05.19.09.19.12,0,.41,0,.79,0,1.16,0,.37.01.73.04,1.08-.05.03-.1.06-.15.1-.05.04-.08.07-.08.09h-.86s-.01.02-.11.07h-.34c-.18,0-.41,0-.69,0s-.59,0-.9,0c-.31,0-.6,0-.86,0-.26,0-.47,0-.62,0-.1,0-.14.01-.11.04-.35,0-.69,0-1.03.02s-.69.02-1.07.02v.52s0,.04,0,.04v.15c-.03.55-.05,1.11-.06,1.67-.01.56-.02,1.16-.02,1.78,0,.05,0,.1,0,.15s.01.15.04.3c0,.2,0,.41-.02.62-.01.21-.02.42-.02.62-.06,1.4-.12,2.75-.19,4.05-.06,1.3-.09,2.42-.1,3.38,0,.22,0,.35,0,.38,0,.03.02.01.08-.04-.05,1.85-.11,3.68-.16,5.47-.05,1.8-.1,3.62-.13,5.47h.04c.92-.02,1.91-.03,2.94-.03,1.04,0,2.08,0,3.13-.03h.79s.15.15.15.15v2.25c-.06.02-.09.04-.12.05-.03.01-.06.03-.11.06h-.79s-.15.07-.15.07h-.34c-.38,0-.74,0-1.09-.02-.35-.01-.66,0-.94.02-.07,0-.11.01-.11.04-.52,0-1.08.02-1.65.05-.58.04-1.15.07-1.73.09-.02-.02-.05-.04-.07-.05-.03-.01-.06-.04-.11-.09v.22c-.1,0-.17.01-.19.04-.43-.03-.84-.03-1.24,0s-.77.09-1.12.18c-.02-.02-.06-.04-.11-.04-.08-.05-.07-.11,0-.19-.05,0-.09,0-.11.02-.03.01-.05.02-.08.02-.18-.05-.28-.14-.3-.26Z"/>
      <path d="M114.46,121.11c-.53.02-1.06.06-1.59.11-.54.05-1.07.1-1.59.15-.03-.03-.05-.04-.08-.04-.5-1.83-.98-3.54-1.45-5.14-.47-1.6-.96-3.3-1.45-5.1-.4.02-.78.04-1.14.05s-.69.02-.99.02h-.37s.07.04.07.04c-.5-.03-.99-.04-1.46-.04-.48,0-.95-.03-1.42-.08-.5,1.8-1,3.5-1.48,5.11-.48,1.61-.97,3.29-1.47,5.04l-.08.07c-.52-.05-1.06-.11-1.59-.17-.54-.06-1.08-.11-1.63-.14.03-.05.04-.1.04-.15v-.08c.05-.05.09-.11.11-.17.02-.06.06-.15.11-.28.48-1.67,1-3.43,1.57-5.28.57-1.85,1.15-3.73,1.74-5.64.59-1.91,1.18-3.84,1.78-5.79.59-1.95,1.17-3.88,1.72-5.81.15-.5.3-1,.44-1.5.14-.5.28-.99.43-1.46.15-.57.31-1.14.47-1.71.16-.56.35-1.13.55-1.71l.04-.07.08-.19.11.26,1.38,4.88.04-.07c.07.35.16.69.24,1.03.09.34.17.67.24.99,1.06,3.88,2.18,7.69,3.34,11.45,1.17,3.75,2.21,7.33,3.12,10.73.05.12.08.22.09.3.01.07.04.14.09.19v.19ZM103.58,108.67c.67.03,1.36.03,2.06,0,.7-.02,1.4-.03,2.1-.03-.12-.47-.25-1.03-.39-1.65s-.28-1.28-.45-1.95-.32-1.36-.48-2.06c-.16-.7-.33-1.36-.5-1.99-.02-.1-.05-.27-.09-.51-.04-.24-.07-.41-.09-.51,0,.03-.02.11-.06.26-.04.15-.06.24-.06.26-.2.68-.4,1.39-.59,2.16-.19.76-.37,1.5-.53,2.23-.17.72-.32,1.42-.47,2.08s-.3,1.23-.45,1.71Z"/>
      <path d="M129.42,90.81c.05.25.06.43.04.53v.04c-.03.08-.04.23-.04.45-.05.82-.1,1.72-.14,2.68-.04.96-.08,1.95-.12,2.96s-.08,2.04-.12,3.07c-.04,1.04-.09,2.04-.14,3.02l.08-.41c-.03.33-.05.64-.06.94-.01.3-.02.6-.02.9-.03.65-.05,1.31-.06,1.97-.01.66-.05,1.32-.1,1.97-.03.75-.05,1.51-.08,2.27-.03.76-.05,1.53-.08,2.31-.03.35-.05.76-.06,1.22s-.03.93-.04,1.41-.03.94-.04,1.41-.03.87-.06,1.22c-.03.1-.04.2-.04.3v.3c0,.2,0,.39.02.58s0,.36-.02.51v.64s-.02.11-.04.24c-.03.14-.03.21,0,.21-.1-.05-.17-.1-.21-.15-.04-.05-.08-.11-.13-.19-.15-.12-.27-.29-.37-.49-.42-.75-.79-1.43-1.1-2.05-.31-.61-.63-1.24-.95-1.9-.47-.98-.96-1.94-1.46-2.89-.5-.95-.96-1.9-1.38-2.85-.22-.45-.42-.86-.58-1.24-.16-.38-.31-.75-.45-1.11-.14-.36-.27-.74-.41-1.13-.14-.39-.28-.82-.43-1.29-.03-.02-.06-.09-.11-.21-.05-.11-.1-.23-.15-.36s-.1-.24-.15-.36c-.05-.11-.08-.19-.08-.24-.17-.38-.33-.78-.48-1.2-.1-.25-.21-.49-.32-.73-.11-.24-.23-.48-.35-.73.02.78.05,1.6.09,2.47.04.88.07,1.51.09,1.91,0,.23,0,.34.02.34.01,0,.03-.02.06-.07.02,1.03.04,2.09.05,3.19,0,1.1.01,2.21.01,3.32,0,1.11,0,2.22,0,3.34,0,1.11.03,2.17.05,3.17-.05.05-.08.09-.09.11-.01.03-.03.05-.06.08l.08.04c.05.05.04.09-.02.13s-.08.08-.06.13h.15c0,.18-.01.34-.04.49-.03.15-.05.31-.08.49-.25-.03-.51-.04-.77-.04-.26,0-.52,0-.77,0h-.94s-.08-.05-.09-.08-.04-.05-.09-.08c-.12-.2-.16-.42-.11-.68v-.6c0-1.65,0-3.41,0-5.29,0-1.88-.02-3.79-.02-5.74,0-1.95-.02-3.92-.02-5.91,0-1.99,0-3.92,0-5.79-.02-.88-.02-1.69,0-2.46.03-.76.07-1.56.12-2.38-.03-.25,0-.54.06-.86.06-.32.12-.6.17-.82.22.28.39.53.49.75.05.12.1.25.17.38.06.13.12.23.17.3.08.2.14.39.21.56.06.18.13.35.21.53.37.88.79,1.8,1.25,2.78.46.97.92,1.96,1.38,2.96.46,1,.91,1.99,1.34,2.97.43.97.81,1.89,1.14,2.74.25.53.48.99.69,1.39.21.4.42.81.63,1.22.21.41.43.84.65,1.28.22.44.47.96.75,1.56v-.11c.18-1.37.32-2.5.42-3.39.1-.89.17-1.81.19-2.76,0-.22,0-.34-.02-.36-.01-.01-.03.02-.06.09.05-2.02.15-4.01.28-5.94.13-1.94.24-3.92.32-5.94l.23-.22h-.15c-.05-.05-.03-.09.06-.11.09-.02.12-.06.09-.11-.05-.03-.11-.04-.19-.04,0-.07,0-.16.02-.24.01-.09.02-.18.02-.28.5.05.87.06,1.12.02.25-.04.6-.04,1.05-.02Z"/>
      <path d="M148.17,121.2c-.53.02-1.06.06-1.59.11-.54.05-1.07.1-1.59.15-.03-.03-.05-.04-.08-.04-.5-1.83-.98-3.54-1.45-5.14-.47-1.6-.96-3.3-1.45-5.1-.4.02-.78.04-1.14.05s-.69.02-.99.02h-.37s.07.04.07.04c-.5-.03-.99-.04-1.46-.04-.48,0-.95-.03-1.42-.08-.5,1.8-1,3.5-1.48,5.11-.48,1.61-.97,3.29-1.47,5.04l-.08.07c-.52-.05-1.06-.11-1.59-.17-.54-.06-1.08-.11-1.63-.14.03-.05.04-.1.04-.15v-.08c.05-.05.09-.11.11-.17.02-.06.06-.15.11-.28.48-1.67,1-3.43,1.57-5.28.57-1.85,1.15-3.73,1.74-5.64.59-1.91,1.18-3.84,1.78-5.79.59-1.95,1.17-3.88,1.72-5.81.15-.5.3-1,.44-1.5.14-.5.28-.99.43-1.46.15-.57.31-1.14.47-1.71.16-.56.35-1.13.55-1.71l.04-.07.08-.19.11.26,1.38,4.88.04-.08c.07.35.16.7.24,1.03.09.34.17.67.24.99,1.06,3.88,2.18,7.69,3.34,11.45,1.17,3.75,2.21,7.33,3.12,10.73.05.12.08.22.09.3.01.07.04.14.09.19v.19ZM137.29,108.76c.67.03,1.36.03,2.06,0,.7-.02,1.4-.03,2.1-.03-.12-.47-.25-1.03-.39-1.65s-.28-1.28-.45-1.95-.32-1.36-.48-2.06c-.16-.7-.33-1.36-.5-1.99-.02-.1-.05-.27-.09-.51s-.07-.41-.09-.51c0,.03-.02.11-.06.26-.04.15-.06.24-.06.26-.2.68-.4,1.39-.59,2.16-.19.76-.37,1.5-.53,2.23-.17.72-.32,1.42-.47,2.08s-.3,1.23-.45,1.71ZM145.45,84.22c.05.1.09.19.11.26.02.12-.01.24-.11.34-.08.08-.12.14-.15.19-.2.25-.35.44-.45.56-.1.12-.2.24-.3.36-.1.11-.21.24-.34.37-.13.14-.29.33-.49.58v.07c-.13.12-.23.26-.3.39s-.18.27-.3.39l-.04-.04c-.33.4-.65.8-.96,1.2-.31.4-.62.8-.92,1.2-.33-.28-.65-.53-.97-.77s-.66-.47-1.01-.7c.2-.25.39-.49.56-.71.17-.22.34-.44.49-.64.1-.17.11-.22.04-.15.3-.4.57-.75.81-1.05.24-.3.46-.58.68-.84s.43-.54.66-.82c.23-.29.5-.64.83-1.07h.15l-.08-.08s.02-.02.08,0c.05.03.07.01.07-.04l-.11-.07c.12-.12.23-.21.3-.26.03.03.05.04.08.04s.05.01.08.04c.22.2.46.38.71.54.25.16.51.33.79.51.02.03.01.06-.04.11.03.03.05.04.08.04s.05.01.08.04Z"/>
      <path d="M160.86,101.39c-.53,1.05-1.28,2-2.26,2.86-.98.86-1.99,1.55-3.04,2.07.05,0,.1.04.15.11.7.48,1.32,1.01,1.85,1.6.54.59.99,1.21,1.36,1.86.72,1.15,1.22,2.38,1.49,3.7.27,1.31.29,2.68.06,4.11l-.04.45c-.03.1-.05.2-.08.3-.03.1-.06.21-.11.34,0,.07-.08.21-.23.41-.05.2-.14.38-.28.54-.14.16-.29.31-.47.43-.28.22-.54.39-.81.5s-.51.21-.73.28c-.53.2-1.06.32-1.61.35-.55.04-1.1.05-1.65.05-.53,0-1.11-.04-1.76-.1-.65-.06-1.22-.04-1.72.09v-.04c-.05-.03-.05-.1,0-.22-.05.03-.09.04-.11.06-.03.01-.06.03-.11.05-.03-.05-.05-.09-.08-.13-.03-.04-.05-.08-.07-.13-.12-.18-.16-.4-.11-.68-.02-.12-.02-.26,0-.41l-.04-.04.04-.04v-.26s0-.06.02-.09.02-.08.02-.13c0-1.2.03-2.43.07-3.69.04-1.26.07-2.55.1-3.88,0-.03,0-.05-.02-.07-.01-.03-.02-.05-.02-.08,0-.35,0-.68-.02-.99-.01-.31,0-.64.06-.99h.08c.03-2.03.07-4.07.13-6.13s.1-4.13.13-6.21c.03-.5.05-1,.06-1.5s.05-1,.1-1.5v-.08s0-.04,0-.04v-.22c-.05-.05-.08-.1-.07-.15v-.11c-.03-.12-.04-.23-.06-.3-.01-.07-.02-.12-.02-.15,0-.28,0-.54-.02-.81-.01-.26,0-.54.02-.84,0-.07,0-.16,0-.26s.01-.17.04-.22h.26c.15,0,.29-.01.41-.04,1.05-.2,2.18-.26,3.39-.18,1.21.08,2.34.26,3.39.53.52.18,1,.39,1.42.64.42.25.77.56,1.05.94.22.28.4.58.54.92.14.34.22.72.24,1.14.1,1.05.13,2.01.1,2.87-.03.86-.23,1.77-.61,2.72-.05.13-.11.26-.19.39s-.16.27-.26.39ZM158.16,115.94c.08-1.47-.24-2.79-.96-3.94-.12-.15-.24-.29-.36-.43-.11-.14-.23-.28-.35-.43-.03,0-.06-.03-.09-.09-.04-.06-.08-.12-.13-.17-.08-.07-.14-.15-.19-.22l-.26-.3-.15-.11-.08-.11c-.07-.05-.13-.11-.17-.17-.04-.06-.09-.12-.17-.17-.2-.15-.35-.28-.45-.38-.1-.05-.19-.1-.28-.15-.09-.05-.16-.11-.21-.19l-.3-.22s-.12-.03-.22-.08c-.05-.02-.1-.06-.15-.09-.05-.04-.1-.06-.15-.06-.03,1.6-.06,3.19-.11,4.76-.04,1.58-.08,3.19-.11,4.84.65.03,1.33.03,2.03,0l.56-.07c.35-.03.69-.09,1.03-.19.34-.1.67-.21,1-.33.02-.03.04-.05.04-.08l.04-.26s0-.07.02-.13c.01-.06.02-.12.02-.17l.08-.38.04-.38.04-.3ZM159.03,95.92c-.05-.43-.14-.74-.26-.94-.3-.4-.71-.66-1.23-.79-.53-.13-1.08-.21-1.65-.27-.35,0-.7,0-1.05.02-.35.01-.68.03-.98.05l.04.38v.04s0,.19,0,.19c-.03.5-.06,1.03-.1,1.59s-.08,1.17-.14,1.82c.05,0,.07.14.07.41v.26c0,.1-.03.21-.08.34v.9c-.03.45-.06.94-.1,1.46-.04.52-.07,1.04-.1,1.54.02.12.04.24.04.36,0,.11.01.22.04.32.65-.17,1.25-.45,1.8-.82.25-.15.48-.31.7-.48.21-.18.43-.36.66-.56.1-.07.19-.15.26-.24.08-.09.16-.19.26-.32.6-.67,1.09-1.43,1.47-2.26s.5-1.73.38-2.68c-.03,0-.04-.01-.04-.04v-.11s0-.15,0-.15Z"/>
      <path d="M165.19,121.17c-.12-.2-.16-.43-.11-.68v-.21c0-.09.01-.18.04-.28.05-1.2.09-2.47.12-3.82.03-1.35.07-2.69.12-4.01,0-.05,0-.08-.02-.09-.01-.01-.02-.03-.02-.06,0-.35,0-.68-.02-.99-.01-.31,0-.63.06-.96.02.03.05.03.08,0,.05-2.03.12-4.05.2-6.09.08-2.04.15-4.08.2-6.13.03-.5.04-.99.04-1.46s.01-.95.04-1.43v-.19s0-.19,0-.19c-.03-.07-.04-.17-.04-.3,0-.1-.01-.18-.04-.22-.02-.05-.04-.1-.04-.15,0-.32-.01-.64-.04-.94-.02-.3-.01-.62.04-.97.05.03.12.03.21.02.09-.01.19-.03.32-.06.05-.05.11-.07.19-.07.03.03.08.04.15.04.3-.02.65-.02,1.05.02.4.04.76.05,1.09.02h.3s.04.08.04.08v2.18s-.04.07-.04.07v.64s0,.07,0,.07v.07c-.03.55-.05,1.1-.06,1.65-.01.55-.05,1.12-.1,1.72.02.05.04.1.06.15s.02.15.02.3v1.2c-.06,1.38-.11,2.69-.16,3.96-.05,1.26-.09,2.37-.12,3.32,0,.22,0,.34.02.36.01.01.03,0,.06-.06-.06,2.03-.1,4.1-.15,6.22s-.09,4.2-.15,6.22c-.05.03-.09.06-.11.09-.03.04-.05.07-.08.09h.11c.05.05.03.1-.06.15-.09.05-.11.1-.06.15h.19c-.05.3-.1.55-.15.75-.08,0-.14.01-.19.04-.38-.03-.78-.02-1.22.03s-.83.1-1.18.15c-.03,0-.04-.01-.04-.04-.05-.05-.05-.11,0-.19-.05,0-.13.03-.23.08-.05-.05-.11-.1-.17-.13-.06-.04-.12-.08-.17-.13ZM165.62,87.08v-.11c.08-.03.15-.04.22-.04h.11s.11.04.17.04.13.03.21.08c0-.05.01-.08.04-.08.02,0,.03,0,.02-.04s0-.04.02-.04c.12.05.28.07.47.07s.33.02.43.04c.02,0,.04-.02.04-.07.23.03.53.05.9.08.38.03.69.06.94.12v.08s.04.01.04.04v-.15c.05.05.08.09.08.11,0,.1.01.17.04.22.05.38.05.73.02,1.07s-.03.68.02,1.03v.04c0,.05-.01.08-.04.08,0,.02,0,.05.02.07.01.03.02.06.02.11,0,.05-.01.1-.04.15s-.04.1-.04.15v.15h-.04s-.09,0-.13.02c-.04.01-.08.02-.13.02h-.11s-.14-.05-.26-.08-.22-.04-.3-.04l-.04.07h-.15c-.15-.05-.29-.06-.43-.04-.14.03-.27.02-.39,0v.11c-.2-.05-.43-.07-.69-.06s-.52,0-.77-.06v-.07.04-.07.11s-.04-.04-.06-.04-.03-.03-.06-.07v-.45c-.05-.38-.07-.72-.05-1.05.01-.32,0-.66-.05-1.01v-.3s0-.22,0-.22Z"/>
      <path d="M171.76,120.92c-.15-.1-.2-.33-.15-.68v-.49c.08-1.22.13-2.48.16-3.77s.07-2.61.12-3.96c0-.1-.03-.15-.08-.15.03-.35.03-.69.02-1.01-.01-.32,0-.66.06-1.01h.08c.06-2.05.12-4.12.18-6.21s.15-4.19.26-6.29c0-.5,0-1,.02-1.5.01-.5.02-1,.02-1.5v-.19s0-.15,0-.15c0-.17,0-.27,0-.3v-.3s-.02-.04-.07-.04l-.04-.04h-.04v-.11c0-.33-.01-.65-.03-.98-.02-.33.01-.66.12-1.01.03.03.09.03.19.02s.22-.03.36-.05c.14-.03.27-.04.38-.06.12-.01.19,0,.21.02h.19s.11,0,.11,0c.05.02.11.04.19.04h.23c.49,0,1.04,0,1.67-.01.63-.01,1.27-.02,1.92-.01.65,0,1.29,0,1.93-.01.64-.01,1.22-.02,1.74-.02h.71c.12.05.19.09.19.12,0,.41,0,.79,0,1.16,0,.37.01.73.04,1.09-.05.03-.1.06-.15.09-.05.04-.08.07-.08.1h-.86s-.01.02-.11.07h-.34c-.18,0-.41,0-.69,0-.29,0-.59,0-.9,0-.31,0-.6,0-.86,0h-.62c-.1,0-.14.01-.11.04-.35,0-.69,0-1.03.02s-.69.02-1.07.02v.53s0,.04,0,.04v.15c-.03.55-.05,1.11-.06,1.67-.01.56-.02,1.16-.02,1.78,0,.05,0,.1,0,.15s.01.15.04.3c0,.2,0,.41-.02.62-.01.21-.02.42-.02.62-.06,1.4-.12,2.75-.19,4.05-.06,1.3-.09,2.43-.1,3.38,0,.22,0,.35,0,.38,0,.03.02.01.08-.04-.05,1.85-.11,3.67-.16,5.47s-.1,3.62-.13,5.47h.04c.92-.02,1.91-.03,2.94-.03,1.04,0,2.08,0,3.13-.03h.79s.15.15.15.15v2.25c-.06.03-.09.04-.12.06-.03.01-.06.03-.11.05h-.79s-.15.07-.15.07h-.34c-.38,0-.74,0-1.09-.02-.35-.01-.66,0-.94.02-.07,0-.11.01-.11.04-.52,0-1.08.02-1.65.05-.58.04-1.15.07-1.73.09-.02-.03-.05-.04-.07-.06-.03-.01-.06-.04-.11-.09v.22c-.1,0-.17.01-.19.04-.43-.03-.84-.03-1.24,0-.39.03-.77.09-1.12.19-.02-.03-.06-.04-.11-.04-.08-.05-.07-.11,0-.19-.05,0-.09,0-.11.02-.03.01-.05.02-.08.02-.18-.05-.28-.14-.3-.26Z"/>
      <path d="M201.57,121.33c-.53.02-1.06.06-1.59.11-.54.05-1.07.1-1.59.15-.03-.03-.05-.04-.08-.04-.5-1.83-.98-3.54-1.45-5.14-.47-1.6-.96-3.3-1.45-5.1-.4.03-.78.04-1.14.05s-.69.02-.99.02h-.37l.07.04c-.5-.03-.99-.04-1.46-.04-.48,0-.95-.03-1.42-.08-.5,1.8-1,3.5-1.48,5.11s-.97,3.29-1.47,5.04l-.08.07c-.52-.05-1.06-.11-1.59-.17-.54-.06-1.08-.11-1.63-.14.03-.05.04-.1.04-.15v-.07c.05-.05.09-.11.11-.17.02-.06.06-.16.11-.28.48-1.67,1-3.43,1.57-5.28s1.15-3.73,1.74-5.64c.59-1.91,1.18-3.84,1.78-5.79.59-1.95,1.17-3.88,1.72-5.81.15-.5.3-1,.44-1.5.14-.5.28-.99.43-1.46.15-.58.31-1.14.47-1.71.16-.56.35-1.13.55-1.71l.04-.07.08-.19.11.26,1.38,4.88.04-.08c.07.35.16.7.24,1.03.09.34.17.67.24,1,1.06,3.88,2.18,7.69,3.34,11.45,1.17,3.75,2.21,7.33,3.12,10.73.05.12.08.22.09.3.01.08.04.14.09.19v.19ZM190.69,108.89c.67.03,1.36.03,2.06,0s1.4-.03,2.1-.03c-.12-.47-.25-1.03-.39-1.65s-.28-1.28-.45-1.95c-.16-.68-.32-1.36-.48-2.06-.16-.7-.33-1.36-.5-1.99-.02-.1-.05-.27-.09-.51-.04-.24-.07-.4-.09-.51,0,.03-.02.11-.06.26-.04.15-.06.24-.06.26-.2.67-.4,1.39-.59,2.15s-.37,1.51-.53,2.23c-.17.73-.32,1.42-.47,2.08-.15.66-.3,1.23-.45,1.71Z"/>
    </g>
    <g>
      <path d="M19.02,57.57c-.04,1.32-.09,2.64-.17,3.94-.07,1.3-.16,2.6-.27,3.89v1.88c-.08.31-.12.62-.14.91-.02.3-.04.62-.08.96-.07.73-.2,1.44-.37,2.14-.07.17-.13.36-.18.55-.05.19-.11.39-.18.6l-.26.47c-.17.17-.31.36-.42.57-.28.31-.58.62-.89.94-.31.31-.66.56-1.05.73-.07.07-.16.11-.26.13s-.19.06-.26.13c-.07.03-.17.06-.29.08-.12.02-.22.04-.29.08l-.57.15c-.07.07-.23.1-.47.1-.59.1-1.19.19-1.8.26-.61.07-1.21.1-1.8.1-.59.03-1.17.01-1.75-.06-.57-.07-1.19-.18-1.85-.32-.28-.14-.56-.27-.83-.39-.28-.12-.56-.29-.83-.5-.14-.07-.27-.16-.39-.26-.12-.1-.27-.21-.44-.31l-.47-.31c-.04-.07-.07-.14-.1-.21-.04-.07-.07-.14-.1-.21-.17-.17-.28-.3-.31-.37-.07-.07-.14-.17-.21-.31-.07-.1-.11-.2-.13-.29-.02-.09-.06-.17-.13-.24-.1-.28-.17-.43-.21-.47-.07-.07-.09-.06-.05.03s.09.22.16.39l-.26-.58c0-.17-.02-.28-.05-.31l-.05-.26-.15-.84c-.07-.28-.13-.56-.18-.83s-.13-.57-.23-.89c-.07-.52-.14-1.06-.2-1.62-.07-.56-.14-1.11-.2-1.67-.1-1.18-.17-2.33-.2-3.45-.03-1.11-.05-2.23-.04-3.34-.03-1.11-.03-2.23,0-3.34.04-1.11.08-2.21.11-3.29l.11-3.29v-1.57s.06-1.67.06-1.67c0-.59.01-1.17.03-1.75.02-.57.06-1.16.13-1.75.07-.59.19-1.22.34-1.88.16-.66.38-1.29.66-1.88.1-.17.2-.34.29-.5.09-.16.18-.32.29-.49.07-.07.13-.15.18-.24.05-.09.11-.17.18-.23l.31-.37c.11-.17.24-.33.39-.47.16-.14.29-.28.39-.42.07,0,.14-.03.21-.1l.31-.21c.07-.03.13-.07.18-.1.05-.03.09-.05.13-.05l.31-.21c.38-.17.72-.3,1.02-.39.29-.08.6-.16.91-.23.35-.07.67-.12.97-.16.3-.03.6-.08.91-.15.63-.07,1.25-.11,1.88-.13.63-.01,1.23.01,1.83.08.31.07.62.12.91.13.29.02.6.06.91.13.17.04.36.09.55.16.19.07.37.14.55.21.17.07.35.14.52.21.17.07.35.14.52.21.07.07.14.1.21.1l.05.05h-.05.1c.03.07.07.14.1.21s.07.12.1.16l.05.1v-.1c.1,0,.16.05.16.16.1,0,.21.02.31.05v.05-.1c.31.21.52.4.62.58.1.07.21.16.31.26.07.03.16.1.26.21v.05c.1.07.16.12.16.16l.21.21.05.1.05.16.05.05v.16c.07.17.14.44.21.78.07.56.11,1.11.12,1.64.02.54.02,1.09.02,1.64-.04.49-.05.98-.03,1.49.02.5,0,1.04-.03,1.59-.04,1.08-.06,2.16-.06,3.24,0,1.08-.04,2.23-.11,3.44,0,.1.02.26.05.47s.03.63,0,1.25c.03.73.03,1.48,0,2.24-.04.77-.06,1.53-.06,2.3ZM15.36,60.23c.04-.91.07-1.82.08-2.74.02-.92.03-1.85.03-2.79.04-.9.06-1.82.06-2.74,0-.92,0-1.85,0-2.79.04-.9.07-1.83.08-2.77.02-.94.07-1.86.14-2.76-.07-.45-.09-.91-.07-1.36.02-.45.04-.92.08-1.41,0-.31-.02-.63-.05-.94-.03-.31-.05-.61-.05-.89-.28-.07-.49-.17-.62-.31-.07-.07-.15-.13-.23-.18-.09-.05-.18-.11-.29-.18l-.05-.05-.31-.16c-.07-.03-.13-.08-.18-.13s-.11-.08-.18-.08c-.21-.07-.33-.11-.36-.11-.14-.07-.23-.09-.26-.05l-.26-.05c-.73-.11-1.47-.17-2.22-.19-.75-.02-1.51.02-2.27.12-.38.07-.75.15-1.1.23-.35.09-.68.18-.99.29l-.05.05-.11.05s-.02.05-.05.05h-.05s-.12.07-.26.21l-.16.1-.1.16c-.07.07-.12.14-.16.21-.04.07-.07.14-.1.21-.35.45-.61,1.04-.79,1.75-.18.71-.3,1.47-.37,2.27-.07.8-.09,1.64-.06,2.51.03.87.01,1.76-.06,2.66-.04.91-.07,1.8-.09,2.69-.02.89-.07,1.77-.14,2.63-.04,1.77-.05,3.55-.04,5.32.01,1.77.07,3.55.17,5.32.07.87.16,1.74.28,2.61.12.87.28,1.74.49,2.61l.1.57c.07.28.1.45.1.52.03.07.05.13.05.18s.03.11.1.18c.07.14.14.23.21.26.14.21.34.39.6.55s.55.29.86.39c.59.25,1.34.37,2.24.37.38-.03.77-.06,1.17-.08.4-.02.81-.06,1.23-.13.21,0,.42-.03.63-.1h.37s.1-.05.21-.05c.07-.03.15-.06.24-.08.09-.02.16-.04.23-.08.07-.07.13-.1.18-.1s.11-.04.18-.1c.45-.28.77-.66.94-1.15.31-.63.47-1.39.48-2.3.04-.38.07-.81.11-1.28.04-.47.07-.95.11-1.43l.33-5.53Z"/>
      <path d="M45.28,34.62c-.07.38-.22.82-.45,1.3-.23.49-.45.92-.66,1.3-.07.17-.16.41-.26.7-.11.3-.25.6-.42.91l-.26.78-.11.26c-.28.7-.57,1.42-.87,2.16s-.62,1.54-.97,2.37c0,.07,0,.13,0,.18s-.04.2-.11.44c-.11.28-.21.55-.32.81-.11.26-.19.53-.26.81-.77,1.88-1.51,3.68-2.21,5.4-.7,1.72-1.3,3.22-1.79,4.51-.11.31-.16.48-.16.5s.03-.03.1-.13c-1.05,2.78-2.11,5.55-3.18,8.32-1.07,2.76-2.15,5.54-3.23,8.32-.14.14-.26.23-.37.26l.16.05c.03.07,0,.13-.13.18-.12.05-.18.11-.18.18h.31c-.07.18-.16.35-.26.52-.1.17-.21.35-.31.52-.07,0-.12,0-.16.03-.04.02-.07.03-.1.03-.56,0-1.1.03-1.64.1-.54.07-1.09.15-1.65.26l-.05-.05c-.07-.03-.05-.14.05-.31-.07.04-.13.07-.18.1-.05.03-.11.05-.18.05l-.31-.31c-.1-.24-.05-.56.16-.94.07-.1.17-.33.31-.68.67-1.67,1.33-3.35,2-5.06.67-1.7,1.35-3.44,2.05-5.21v-.21c.17-.49.32-.94.45-1.36.12-.42.31-.85.55-1.3h.1c1.12-2.74,2.22-5.51,3.31-8.29,1.09-2.78,2.19-5.58,3.31-8.39.28-.69.54-1.36.79-2.01.24-.64.51-1.29.79-1.96v-.16l.05-.05v-.05s.05-.07.05-.1.02-.07.05-.1c0-.14.04-.28.11-.42v-.52s.16-.31.16-.31l-3.81.04-8.4-.02c-.28-.04-.57-.05-.86-.05-.3,0-.58-.04-.86-.11-.17-.04-.23-.11-.16-.24.07-.12.17-.23.31-.34-.07.03-.1.02-.1-.05s-.02-.09-.05-.05c0-.1.04-.23.11-.37s.19-.24.37-.31h-.26s0-.37,0-.37c.1,0,.16-.02.16-.05v-.31s-.31,0-.31,0c.1,0,.16-.03.16-.1v-.26c.07-.07.16-.08.26-.03.1.05.19.06.26.03v-.26c-.07-.04-.16-.04-.26-.03s-.19.02-.26.02c.07-.03.1-.14.1-.31.1-.03.21-.03.31.03.1.05.23.03.37-.08h-.26c.07-.17.18-.23.34-.16.16.07.3.07.44,0,.03-.03.09-.05.16-.05h.42s1.2,0,1.2,0c.8,0,1.62,0,2.45,0s1.69-.01,2.56-.05c.83,0,1.68.01,2.53.03s1.7.03,2.53.03h3.5s.37,0,.37,0l-.1.1c.94-.1,1.84-.15,2.71-.15Z"/>
      <path d="M69.91,39.49l-.11.21c-.31.77-.65,1.56-1,2.37-.35.82-.72,1.68-1.1,2.58,0,.04-.07.28-.21.73-.14.28-.27.57-.39.86-.12.3-.25.58-.39.86-.88,2.02-1.72,3.95-2.52,5.79-.81,1.84-1.5,3.48-2.1,4.9-.18.35-.25.53-.24.55s.06,0,.13-.08c-1.3,2.99-2.57,5.85-3.83,8.58s-2.54,5.6-3.83,8.63l-.31.31h.1c0,.11-.04.17-.13.18-.09.02-.13.06-.13.13,0,.04.05.07.16.1-.07.21-.16.4-.26.57s-.19.35-.26.52c-.07-.04-.16-.05-.26-.05-.38-.17-.84-.31-1.38-.39-.54-.09-1.02-.17-1.43-.24-.04,0-.05-.02-.05-.05-.04-.07-.04-.13,0-.18.03-.05.05-.11.05-.18-.04,0-.06,0-.08.03-.02.02-.06.03-.13.03-.07-.07-.1-.14-.1-.21s-.02-.16-.05-.26c-.03-.35.05-.71.26-1.1.14-.28.24-.5.32-.68.8-1.77,1.6-3.48,2.39-5.11.79-1.63,1.58-3.42,2.39-5.37l.05-.1v-.05c.21-.49.38-.98.53-1.49.14-.5.33-1,.58-1.49,0,.04.03.05.1.05,1.29-2.99,2.61-5.97,3.94-8.94,1.33-2.97,2.64-5.99,3.94-9.04.28-.7.57-1.4.87-2.11.3-.71.6-1.42.92-2.11l.05-.21v-.1c.07-.14.11-.23.11-.26.04-.1.09-.26.16-.47.1-.24.16-.43.16-.57.21-.49.42-.97.63-1.46.21-.49.45-.97.73-1.46,0,.04.17.09.52.16.07-.03.16-.05.26-.05.07.07.12.1.16.11.31.1.71.22,1.2.34.49.12.9.25,1.25.39.14,0,.24.02.31.05h.05s-.05.1-.05.21c-.28.59-.53,1.17-.74,1.75-.21.57-.44,1.17-.68,1.8l-.1.1-.37.89-.05.05Z"/>
      <path d="M87.45,37.39c-.04.8-.07,1.62-.08,2.45s-.05,1.74-.08,2.71c.03.04.06.09.08.16.02.07.03.21.03.42v1.83c-.08,2.09-.14,4.08-.18,5.98-.04,1.9-.1,3.58-.17,5.04,0,.31.02.48.05.5.03.02.07,0,.11-.08-.08,3.06-.15,6.12-.21,9.16-.06,3.04-.13,6.12-.21,9.21-.11.17-.19.28-.26.31l.21.05c.03.07,0,.13-.08.18-.09.05-.13.11-.13.18h.26c0,.17,0,.36-.03.55-.02.19-.04.37-.08.55-.52.17-.94.38-1.25.62-.1-.04-.16-.1-.16-.21v.1s-.02.05-.05.05c-.07-.04-.08-.09-.02-.16.05-.07.08-.12.08-.16-.07,0-.1.05-.1.16s-.04.16-.11.16c0-.07,0-.12-.03-.16-.02-.04-.03-.07-.03-.1-.1-.07-.13-.05-.08.05.05.1.04.16-.03.16v-.26c-.07.07-.15.1-.24.08-.09-.02-.17-.03-.23-.03-.17.07-.33.12-.47.16-.14.03-.26-.02-.37-.16-.03-.04-.05-.14-.05-.31-.04.03-.14.09-.31.16-.1-.14-.23-.26-.36-.37-.07-.17-.1-.35-.1-.52,0-.17,0-.35,0-.52v-.73c.15-5.08.31-10.43.46-16.05.15-5.62.32-11.3.51-17.04v-2.35s-.52.47-.52.47c-1.01,1.08-2.05,2.12-3.11,3.12-1.06,1.01-2.14,2.05-3.22,3.12-.21.24-.43.46-.65.65-.23.19-.48.39-.76.6-.17.07-.29.03-.34-.13-.05-.16-.08-.32-.08-.5,0,.07-.03.07-.08,0-.05-.07-.08-.07-.08,0-.17-.07-.29-.21-.34-.42-.05-.21-.04-.38.03-.52l-.21.16c-.07,0-.11-.03-.13-.08-.02-.05-.06-.1-.13-.13.04-.17.05-.28.05-.31l-.26-.26-.16.26c0-.07.02-.11.05-.13.04-.02.02-.06-.05-.13l-.26-.31c0-.1.06-.18.18-.23.12-.05.18-.11.18-.18l-.16-.16c-.1.03-.2.09-.29.16-.09.07-.16.12-.23.16,0-.07-.05-.16-.16-.26.07-.1.17-.18.31-.23.14-.05.19-.18.16-.39l-.16.21c-.14-.21-.11-.34.08-.39.19-.05.32-.15.39-.29.04-.03.05-.09.05-.16h.05l.21-.21c.14-.24.28-.43.42-.57s.3-.29.47-.47c.63-.59,1.26-1.2,1.91-1.82.65-.62,1.28-1.23,1.91-1.82.63-.66,1.27-1.3,1.94-1.93.66-.62,1.29-1.25,1.88-1.87l.47-.47h.68s0-.21,0-.21c.66.04,1.29.06,1.88.08.59.02,1.18.05,1.78.08v3.76Z"/>
      <path d="M117.05,73.69c.07.14.15.26.23.37.09.1.16.21.23.31-.14.17-.27.33-.39.47-.12.14-.25.28-.39.42-.07-.03-.15-.07-.24-.1-.09-.04-.17-.05-.23-.05s-.14.04-.21.1c-.07.04-.1.08-.11.13,0,.05-.02.1-.05.13-.04.14-.04.24,0,.31.03.07.07.14.1.21v.05h-.05s-.05.07-.16.11c-.17.07-.33.17-.47.31l-.11.21.05.05c-.07.07-.15.14-.24.21-.09.07-.17.14-.24.21l-.99-1.41c-.14-.17-.28-.35-.42-.52-.14-.17-.26-.35-.36-.52-.42-.52-.83-1.05-1.25-1.59-.42-.54-.85-1.09-1.3-1.65l-.1-.16c-.24-.28-.47-.56-.68-.84-.21-.28-.43-.56-.68-.84l-.26-.31-.26.31c-.17.38-.38.71-.63.99-.14.21-.31.45-.52.73l-.68.89c-.07.17-.18.29-.31.36-.07.07-.13.13-.18.18-.05.05-.1.11-.13.18-.14.1-.26.21-.37.31-.1.1-.24.23-.42.36-1.12.94-2.23,1.66-3.35,2.18-1.32.62-2.63.93-3.92.93-1.25,0-2.35-.39-3.29-1.16-.03-.03-.07-.05-.1-.05-.1-.1-.19-.17-.26-.21-.03-.1-.12-.23-.26-.37-.17-.21-.29-.45-.36-.73l-.05-.1c-.07-.14-.1-.26-.1-.37l-.16-.42c-.1-.42-.15-.82-.15-1.2-.07-.42-.09-.82-.08-1.2.02-.38.03-.76.03-1.15l.06-1.04v-.16c.03-.17.05-.36.05-.55,0-.19.04-.37.11-.55v-.31s.11-.31.11-.31c.25-.94.66-1.7,1.23-2.29.58-.59,1.22-1.05,1.94-1.38.71-.33,1.43-.55,2.14-.67.71-.12,1.37-.2,1.96-.23h.73c.49,0,.98.02,1.49.06.5.04,1.02.11,1.54.21.94.14,1.77.37,2.5.69l.37.16.05-.37s.02-.07.05-.1c0-.03,0-.06.03-.08.02-.02.03-.04.03-.08.18-.8.33-1.52.45-2.17.12-.64.22-1.28.29-1.9.18-1.42.28-2.83.3-4.23.02-1.39.02-2.85-.01-4.38v-4.44c.01-.63,0-1.29-.04-1.98-.03-.7-.1-1.38-.2-2.04-.1-.35-.2-.65-.28-.91-.09-.26-.17-.5-.23-.7-.14-.24-.26-.45-.36-.63-.1-.17-.24-.35-.42-.52h-.05c-.17-.17-.36-.31-.55-.39-.19-.09-.39-.17-.6-.24-.28-.11-.56-.18-.86-.24s-.58-.11-.86-.18c-.94-.11-2.1-.16-3.5-.17h-.63c-.31,0-.64,0-.99,0-.35,0-.71.02-1.1.05-.31-.07-.64-.11-.99-.11-.35,0-.75,0-1.2,0h-1.62s-.1,0-.1,0l-.1-2.12v-.11c0-.11,0-.23-.02-.37-.02-.14,0-.25.08-.32.07-.18.2-.29.39-.34.19-.05.43-.1.71-.13h.21c.7-.1,1.41-.16,2.14-.18.73-.02,1.46-.04,2.19-.07h.89s.42,0,.42,0c.7,0,1.32.02,1.88.06.56.04,1.1.09,1.62.16.63.04,1.3.18,2.03.42l.57.16c.1.04.23.09.37.16.1,0,.16.04.16.11h.05c.21.04.49.17.83.42.07.04.11.05.13.05.02,0,.06.02.13.05,1.32.94,2.26,2.22,2.81,3.82.28.8.46,1.57.54,2.3.08.73.14,1.39.18,1.99v3.03s0,.89,0,.89v2.14c0,.91,0,1.84-.01,2.8,0,.96-.02,1.93-.06,2.9-.07,1.57-.19,2.99-.35,4.26-.16,1.27-.38,2.48-.66,3.63-.07.35-.16.67-.26.97-.1.29-.21.62-.31.96l-.05.16.16.16c.14.14.24.26.31.37.07.1.17.23.31.37l1.15,1.31,1.14,1.47c.35.42.68.85.99,1.28.31.44.62.86.94,1.28l1.56,2.09ZM106,66.88l-.42-.16c-.07,0-.12,0-.16-.03-.04-.02-.09-.04-.16-.08-.35-.11-.71-.2-1.1-.29-.38-.09-.8-.17-1.25-.24-.38-.04-.7-.05-.96-.05-.26,0-.53,0-.81,0-1.11,0-2,.17-2.66.52-.84.45-1.31,1.23-1.42,2.35-.04.07-.05.16-.05.26,0,.1-.02.21-.05.31-.07.31-.12.64-.16.99-.04.35-.04.69,0,1.02s.13.63.29.89c.16.26.41.46.76.6.14.1.36.16.68.16.42,0,.84-.09,1.28-.28.44-.19.83-.39,1.18-.6.07-.04.11-.05.13-.05.02,0,.06-.02.13-.05.59-.38,1.13-.77,1.62-1.17.49-.4.89-.79,1.2-1.17l.58-.78c.07-.1.14-.2.21-.29.07-.09.14-.17.21-.23.03-.07.06-.12.08-.16.02-.03.04-.09.08-.16.21-.31.4-.64.58-.99l.21-.31Z"/>
      <path d="M153,37.56c-.04.8-.07,1.62-.08,2.45s-.05,1.74-.08,2.71c.03.04.06.09.08.16.02.07.03.21.03.42v1.83c-.08,2.09-.14,4.08-.18,5.98-.04,1.9-.1,3.58-.17,5.04,0,.31.02.48.05.5.03.02.07,0,.11-.08-.08,3.06-.15,6.12-.21,9.16-.06,3.04-.13,6.12-.21,9.21-.11.17-.19.28-.26.31l.21.05c.03.07,0,.13-.08.18-.09.05-.13.11-.13.18h.26c0,.17,0,.36-.03.55-.02.19-.04.37-.08.55-.52.17-.94.38-1.25.62-.1-.04-.16-.1-.16-.21v.1s-.02.05-.05.05c-.07-.04-.08-.09-.02-.16.05-.07.08-.12.08-.16-.07,0-.1.05-.1.16s-.04.16-.11.16c0-.07,0-.12-.03-.16-.02-.04-.03-.07-.03-.1-.1-.07-.13-.05-.08.05.05.1.04.16-.03.16v-.26c-.07.07-.15.1-.24.08-.09-.02-.17-.03-.23-.03-.17.07-.33.12-.47.16-.14.03-.26-.02-.37-.16-.03-.04-.05-.14-.05-.31-.04.03-.14.09-.31.16-.1-.14-.23-.26-.36-.37-.07-.17-.1-.35-.1-.52,0-.17,0-.35,0-.52v-.73c.15-5.08.31-10.43.46-16.05.15-5.62.32-11.3.51-17.04v-2.35s-.52.47-.52.47c-1.01,1.08-2.05,2.12-3.11,3.12-1.06,1.01-2.14,2.05-3.22,3.12-.21.24-.43.46-.65.65-.23.19-.48.39-.76.6-.17.07-.29.03-.34-.13-.05-.16-.08-.32-.08-.5,0,.07-.03.07-.08,0-.05-.07-.08-.07-.08,0-.17-.07-.29-.21-.34-.42-.05-.21-.04-.38.03-.52l-.21.16c-.07,0-.11-.03-.13-.08-.02-.05-.06-.1-.13-.13.04-.17.05-.28.05-.31l-.26-.26-.16.26c0-.07.02-.11.05-.13.04-.02.02-.06-.05-.13l-.26-.31c0-.1.06-.18.18-.23.12-.05.18-.11.18-.18l-.16-.16c-.1.03-.2.09-.29.16-.09.07-.16.12-.23.16,0-.07-.05-.16-.16-.26.07-.1.17-.18.31-.23.14-.05.19-.18.16-.39l-.16.21c-.14-.21-.11-.34.08-.39.19-.05.32-.15.39-.29.04-.03.05-.09.05-.16h.05l.21-.21c.14-.24.28-.43.42-.57.14-.14.3-.29.47-.47.63-.59,1.26-1.2,1.91-1.82.65-.62,1.28-1.23,1.91-1.82.63-.66,1.27-1.3,1.94-1.93.66-.62,1.29-1.25,1.88-1.87l.47-.47h.68s0-.21,0-.21c.66.04,1.29.06,1.88.08.59.02,1.18.05,1.78.08v3.76Z"/>
      <path d="M173.2,39.23l-.05.21c-.04.7-.06,1.44-.06,2.22,0,.78-.02,1.61-.06,2.48,0,.03,0,.09.03.16.02.07.02.23.02.47v1.62c-.08,1.91-.14,3.76-.2,5.53-.06,1.77-.1,3.32-.14,4.65,0,.31,0,.48.02.5.02.02.06-.03.13-.13-.08,2.85-.15,5.82-.21,8.9-.06,3.08-.13,6.05-.21,8.9-.04.03-.06.08-.08.13-.02.05-.04.11-.08.18h.1c.03.07.02.12-.05.16-.07.04-.09.09-.05.16,0,.03.05.05.16.05,0,.17,0,.35-.03.52-.02.17-.04.35-.08.52-.07,0-.1,0-.1.03,0,.02-.04.04-.1.08-.38-.07-.81-.07-1.28,0-.47.07-.9.14-1.28.21l-.05-.05c-.1,0-.12-.1-.05-.31-.1.1-.17.16-.21.16l-.31-.31c-.07-.14-.11-.29-.13-.47-.02-.17-.02-.35-.02-.52.03-.1.05-.33.05-.68.07-1.67.12-3.51.14-5.53.02-2.02.07-3.93.14-5.74,0-.07,0-.12-.02-.16-.02-.03-.03-.07-.03-.1,0-.45,0-.9-.02-1.33-.02-.43.01-.9.08-1.38,0,.04.02.04.05,0,.07-1.74.12-3.45.14-5.14.02-1.69.07-3.42.14-5.19-1.46-.04-2.96-.07-4.49-.09-1.53-.02-3.08-.05-4.65-.09h-1.51s-.05,0-.05,0h-.05.31c-.07,0-.14.02-.21.05-.1,0-.17.02-.21.05h-.26c-.28.07-.44.1-.47.1-.04-.07-.05-.17-.05-.29v-.34c0-.35.01-.73.03-1.15.02-.42.03-.8.03-1.15.11-.03.16-.19.16-.47,0-.21.02-.35.05-.42v-.31s0-.1,0-.1c.03-.17.05-.35.05-.52,0-.17,0-.35,0-.52.04-1.32.06-2.65.06-3.99,0-1.34.02-2.6.06-3.78,0-.17,0-.43-.02-.78s-.02-.56-.02-.63v-.05c0-.14,0-.23.03-.26.02-.03.08-.12.18-.26.14-.14.24-.26.31-.36.03.1.1.16.21.16,0-.14.02-.23.05-.26.11-.14.2-.19.29-.16.09.04.22.09.39.16.07.07.15.09.24.05.09-.03.16-.02.23.05-.04-.07-.05-.14-.05-.21.07,0,.08.04.05.1-.04.07,0,.1.1.11-.04-.07-.04-.11-.03-.13.02-.02.03-.06.03-.13.07,0,.1.04.1.13,0,.09.03.13.1.13.03-.03.02-.08-.05-.13-.07-.05-.07-.1,0-.13l.05.05s.02.05.05.05c.07-.24.23-.29.47-.16-.07-.07-.1-.14-.1-.21,0,.04,0,.05.03.05s.03.02.03.05v-.1h.05s.05.07.05.11v-.05c.07,0,.14.02.21.05.07.07.14.12.21.16.07.04.1.07.1.1.03.24.07.42.1.52.03.1.05.3.05.57h-.21c-.04.07,0,.13.08.18.09.05.1.11.03.18h-.1c.03.07.06.24.08.52s.04.45.08.52c-.04.73-.06,1.46-.06,2.19s-.02,1.46-.06,2.19c-.07-.07-.1-.03-.1.1-.04.31-.05.7-.03,1.15.02.45.02.92.02,1.41v.42c-.04.1-.09.16-.16.16,0,.17,0,.53,0,1.07,0,.54.01,1,.05,1.38h.16c.7,0,1.37.02,2.03.06.66.04,1.23.05,1.72.06l.21-.05-.05-.05c.7,0,1.38,0,2.06,0,.68,0,1.37.02,2.06.06,0-.66.01-1.31.03-1.96.02-.64.05-1.28.08-1.91,0-.7.01-1.37.03-2.04.02-.66.03-1.34.03-2.04v-.16s0-.1,0-.1v-.21c0-.21-.02-.35-.05-.42,0-.31-.02-.5-.05-.57,0-.49,0-1.01-.02-1.57-.02-.56.01-1.08.08-1.57,0,.04.17.02.52-.05.07-.07.14-.08.21-.05v-.05s.05.05.16.05c.31-.03.68-.06,1.1-.08.42-.02.82-.04,1.2-.08h.26s.05.09.05.16v3.71s0,.1,0,.1l-.05.89h.05v.05Z"/>
      <path d="M198.2,37.36c-.04.17-.04.43-.03.76.02.33-.01.64-.08.91v.78s0,.1,0,.1v.21c-.04.7-.07,1.43-.11,2.19-.04.77-.07,1.58-.11,2.45,0,.04.02.1.05.18.03.09.05.22.05.39v1.72c-.08,1.91-.16,3.76-.25,5.54s-.16,3.33-.19,4.65c0,.31.02.48.05.5.03.02.07-.03.1-.13-.08,2.86-.15,5.7-.23,8.53s-.15,5.67-.23,8.52c-.07.07-.14.18-.21.31h.1c.07.07.05.13-.05.18-.1.05-.12.11-.05.18h.21l-.16,1.1h-.31c-.49-.04-1-.02-1.54.05-.54.07-1.07.14-1.59.21h-.05s-.05-.14-.05-.31c-.07.03-.11.05-.13.05s-.06.04-.13.1c-.1-.07-.18-.14-.24-.21-.05-.07-.11-.12-.18-.16-.1-.14-.17-.29-.18-.44-.02-.16-.03-.32-.03-.5v-.05c0-.07,0-.17.03-.29s.03-.25.03-.39c.07-1.67.14-3.37.2-5.11.06-1.74.12-3.55.2-5.43-.04-.03-.05-.07-.05-.1s-.02-.07-.05-.1c.04-.45.04-.9,0-1.33-.03-.43-.02-.9.05-1.38h.05c.07-.87.12-1.74.14-2.61.02-.87.05-1.76.09-2.66-1.16.03-2.38.05-3.68.07-1.3.01-2.61.04-3.94.07h-.74c0,.24-.01.48-.03.7-.02.23-.03.44-.03.65,0,.31.02.48.05.5.03.02.05-.03.05-.13-.08,2.85-.15,5.69-.23,8.51-.08,2.82-.15,5.65-.23,8.51-.07.14-.14.24-.21.31h.16c.03.07,0,.13-.11.18-.1.05-.12.11-.05.18h.21c0,.18,0,.36-.03.55-.02.19-.04.38-.08.55h-.26c-.55-.04-1.08-.02-1.6.05-.52.07-1.03.14-1.55.21h-.05c-.07-.07-.1-.12-.1-.16v-.16s-.07.05-.1.05-.09.04-.15.1c-.07-.07-.14-.14-.21-.21s-.14-.12-.21-.16c-.1-.14-.17-.29-.18-.45-.02-.16,0-.32.03-.5l-.05-.05c.07-.21.11-.44.11-.68.04-1.67.09-3.38.14-5.12.06-1.74.12-3.56.2-5.44-.04-.03-.05-.1-.05-.21,0-.45-.01-.9-.05-1.33-.03-.44-.02-.9.05-1.39h.16c.08-2.82.16-5.66.26-8.52.09-2.86.2-5.73.31-8.62.04-.66.06-1.33.06-2.01,0-.68.02-1.35.06-2.01v-.52c-.03-.07-.05-.21-.05-.42,0-.24-.05-.42-.16-.52.04-.49.04-1.08,0-1.77-.03-.7,0-1.29.11-1.77.03.03.12.04.26.03.14-.02.29-.03.46-.05.17-.02.33-.03.49-.05.16-.02.25,0,.28.03v.05c.55-.03,1.06-.07,1.52-.1.46-.03.97-.03,1.53,0,.07.38.08.82.02,1.3s-.1.92-.13,1.3c-.04.17-.04.43-.03.76.02.33-.01.64-.08.91v.78s0,.1,0,.1l-.05.21c-.04.7-.07,1.43-.08,2.19-.02.77-.03,1.58-.03,2.45v.57s0,1.72,0,1.72c0,.97-.02,1.91-.06,2.79-.04.89-.09,1.77-.16,2.63h.79s.05,0,.05,0l.11-.05h.42c.49,0,.95,0,1.39,0,.44,0,.83-.01,1.18-.05.17,0,.19-.03.05-.1.73-.03,1.47-.06,2.21-.07s1.45-.04,2.16-.07c.07-1.36.13-2.72.17-4.1.04-1.37.08-2.76.12-4.15.04-.66.06-1.33.08-2.01s.03-1.35.03-2.01v-.42c.15-.76.23-1.52.25-2.27.02-.75.03-1.52.03-2.32.21,0,.44-.02.69-.05.25-.03.37-.03.37,0,.04,0,.05.02.05.05.6-.03,1.13-.07,1.59-.1.46-.03.97-.03,1.53,0,.1.38.12.82.05,1.3-.07.49-.12.92-.16,1.3Z"/>
    </g>
    <g>
      <path d="M9.8,1.28c0,.22,0,.44.02.65-.02,0-.05.02-.1.07h-.94s-.03,0-.04.01c0,0-.03.01-.06.01-.05,0-.11,0-.17.01-.07,0-.12.01-.17.01-.38,0-.74,0-1.07-.01-.34,0-.64,0-.9,0h-.1s.02.02.02.02c-.56.02-1.11.03-1.66.03-.55,0-1.11.02-1.69.03-.02-.02-.03-.02-.05-.02h.02v.59s0,.1,0,.1c-.02.34-.04.7-.05,1.07-.02.37-.04.76-.05,1.17.02.02.03.12.05.3,0,.13,0,.26-.01.39,0,.13-.01.26-.01.39,0,.34-.01.68-.04,1.01-.03.33-.04.66-.04.99.53-.01,1.07-.02,1.63-.02.56,0,1.12,0,1.7,0,.1-.02.19-.02.27-.02h.25l.07.08h.03c-.02.2-.02.4-.01.6,0,.21.01.41.01.6-.03.02-.06.02-.09.02s-.05.02-.09.05h-.49s-.03,0-.04.01c0,0-.03.01-.06.01s-.07,0-.11,0-.08,0-.11.02c-.25,0-.48,0-.69-.01-.21,0-.41,0-.59.01-.05,0-.08,0-.09.01,0,0,0,.01.04.01-.28.02-.56.03-.84.03-.28,0-.56.01-.84.01-.02.25-.03.48-.04.71s-.01.46-.01.69c0,.15,0,.22.01.22,0,0,.02-.02.04-.05-.04,1.35-.07,2.69-.11,4.03-.04,1.34-.07,2.69-.11,4.05-.02.05-.05.1-.1.15h.07s.02.06-.04.09c-.06.02-.07.05-.04.09h.1c0,.1,0,.19-.01.27,0,.08-.02.17-.04.25-.03.02-.08.02-.15.02-.25-.02-.49,0-.74.02-.25.03-.5.06-.76.1l-.02-.02s-.06-.06-.02-.12c-.03.02-.05.02-.06.02,0,0-.03.02-.06.05-.1-.1-.17-.17-.22-.2-.08-.13-.11-.28-.07-.44v-.15s0-.11.02-.2c.02-.79.04-1.6.06-2.43s.04-1.69.08-2.58v-.1c0-.21,0-.43-.02-.64s0-.43.03-.64h.07c.04-1.33.08-2.68.13-4.04.05-1.36.1-2.73.13-4.09.02-.33.03-.65.03-.97s0-.64.03-.95v-.07s0-.05,0-.05v-.12s-.02-.1-.02-.2c0-.07,0-.12-.03-.16-.02-.04-.02-.07-.02-.09,0-.23,0-.45-.02-.67-.02-.21,0-.44.05-.67.02,0,.09,0,.22-.02.13-.02.25-.03.37-.02.03-.03.06-.04.09-.04.02,0,.07.01.13.01.1-.03.22-.04.37-.04.15,0,.29.02.42.04l.05-.02c.07.02.23.02.49.03.9-.01,1.86-.02,2.88-.02,1.02,0,2.05,0,3.08-.02h.79s.03,0,.03,0l.05.05c0,.21,0,.43,0,.65Z"/>
      <path d="M18.95,20.3c-.34.01-.7.04-1.05.07-.35.03-.7.06-1.05.1-.02-.02-.03-.02-.05-.02-.33-1.2-.64-2.33-.95-3.38-.31-1.05-.63-2.17-.95-3.36-.26.02-.51.03-.75.04-.24,0-.46.01-.65.01h-.25l.05.02c-.33-.02-.65-.03-.96-.03-.31,0-.62-.02-.94-.05-.33,1.18-.66,2.3-.97,3.36-.32,1.06-.64,2.17-.97,3.31l-.05.05c-.34-.03-.69-.07-1.05-.11-.35-.04-.71-.07-1.07-.09.02-.03.02-.07.02-.1v-.05s.06-.07.07-.11c.02-.04.04-.1.08-.18.32-1.1.66-2.26,1.03-3.47.37-1.21.75-2.45,1.14-3.71.39-1.26.78-2.52,1.17-3.81.39-1.28.77-2.55,1.13-3.82.1-.33.19-.66.29-.99.09-.33.19-.65.29-.96.1-.38.2-.75.31-1.12.11-.37.23-.74.36-1.12l.03-.05.05-.12.07.17.9,3.21.03-.05c.05.23.1.46.16.68s.11.44.16.65c.7,2.55,1.43,5.06,2.2,7.52.77,2.47,1.45,4.82,2.05,7.06.03.08.05.15.06.2,0,.05.03.09.06.12v.12ZM11.79,12.12c.44.02.9.02,1.36,0,.46-.01.92-.02,1.38-.02-.08-.31-.17-.67-.26-1.09-.09-.41-.19-.84-.29-1.28-.11-.44-.21-.9-.32-1.36-.11-.46-.22-.9-.33-1.31-.02-.07-.04-.18-.06-.33-.03-.16-.04-.27-.06-.33,0,.02-.01.07-.04.17-.03.1-.04.16-.04.17-.13.44-.26.92-.39,1.42-.12.5-.24.99-.35,1.47-.11.48-.21.93-.31,1.37s-.2.81-.3,1.12Z"/>
      <path d="M20.52,20.23c-.1-.13-.13-.28-.1-.45v-.03s.03-.15.03-.32c.03-.81.06-1.63.08-2.48.02-.85.05-1.72.08-2.61,0-.03,0-.05-.01-.06,0,0-.01-.02-.01-.04,0-.23,0-.45-.01-.67,0-.21,0-.44.04-.67h.05c.06-1.35.11-2.71.16-4.08.05-1.37.09-2.76.13-4.16,0-.33,0-.65.02-.98s.02-.65.04-.97v-.08s0-.02,0-.02v-.02s-.02-.07-.02-.12c0-.03,0-.07-.01-.1,0-.03-.01-.07-.01-.1,0-.03,0-.06-.01-.08,0-.02-.01-.05-.01-.09v-.05l-.02-.02v-.02c.02-.23.02-.45,0-.67-.02-.22,0-.43.03-.64h.14c.08,0,.16,0,.24-.02s.16-.02.24-.02.12,0,.14,0v.02h.18s.08,0,.14.01c.06,0,.13.01.21.01.3,0,.66,0,1.06,0,.41,0,.82-.01,1.25-.02.43,0,.85-.01,1.27,0s.8,0,1.15,0c.08-.01.16-.02.25-.02s.16,0,.25,0c.02.02.03.03.05.04.02,0,.03.02.05.04v1.46s-.08.05-.13.05h-.54s-.02.06-.07.07h-.25c-.12,0-.27,0-.46,0-.19,0-.39,0-.59,0-.21,0-.39,0-.57,0-.17,0-.31,0-.41,0-.07,0-.08.02-.05.05-.23.02-.46.03-.69.04s-.46.01-.69,0v.32s0,.02,0,.02v.12c-.03.35-.05.7-.05,1.07,0,.37-.02.76-.05,1.17.02.03.03.07.04.1,0,.03.01.09.01.17v.84c-.04.92-.08,1.81-.12,2.67-.04.86-.07,1.6-.09,2.22,0,.17,0,.25.02.25s.03-.02.03-.05c-.04,1.22-.07,2.43-.1,3.63-.03,1.2-.06,2.41-.1,3.63h.03c.62-.01,1.28-.02,1.97-.03.69,0,1.38-.02,2.07-.03h.47s.05.03.06.04c0,0,.03.02.06.04v1.5s-.06.02-.08.02-.04.02-.07.05c-.08-.02-.17-.02-.26-.03h-.26s-.03.03-.1.05h-.22s-.99,0-.99,0c-.23.43-.5.89-.82,1.39-.31.5-.6.97-.87,1.42-.03.07-.07.13-.11.2-.04.07-.08.14-.11.22-.03,0-.08.02-.15.05h-.22s-1.25-.74-1.25-.74v-.15c.03-.08.07-.16.12-.23.05-.07.1-.15.15-.23,0-.02,0-.03-.01-.04,0,0,0-.03.01-.06.03-.03.05-.06.06-.09,0-.03.03-.05.06-.09.13-.23.29-.48.47-.75.18-.27.31-.48.4-.63.05-.1.05-.12,0-.07,0-.02,0-.03.01-.04,0,0,.01-.02.01-.04h-.42s-.07-.05-.12-.05c0,.05,0,.09-.03.12-.02,0-.03,0-.05.01-.02,0-.04.01-.08.01-.27-.02-.53-.01-.78.01-.25.02-.51.05-.78.08-.03-.02-.05-.07-.05-.15-.05.05-.09.07-.12.07-.05-.03-.11-.09-.2-.17Z"/>
      <path d="M40.22,20.35c-.34.01-.7.04-1.05.07-.35.03-.7.06-1.05.1-.02-.02-.03-.02-.05-.02-.33-1.2-.64-2.33-.95-3.38-.31-1.05-.63-2.17-.95-3.36-.26.02-.51.03-.75.04s-.46.01-.65.01h-.25s.05.02.05.02c-.33-.02-.65-.03-.96-.03-.31,0-.62-.02-.94-.05-.33,1.18-.66,2.3-.97,3.36-.32,1.06-.64,2.16-.97,3.31l-.05.05c-.34-.03-.69-.07-1.05-.11-.35-.04-.71-.07-1.07-.09.02-.03.02-.07.02-.1v-.05s.06-.07.07-.11c.02-.04.04-.1.08-.18.32-1.1.66-2.26,1.03-3.47.37-1.21.75-2.45,1.14-3.71.39-1.26.78-2.52,1.17-3.81.39-1.28.77-2.55,1.13-3.82.1-.33.19-.66.29-.99.09-.33.19-.65.29-.96.1-.38.2-.75.31-1.12.11-.37.23-.74.36-1.12l.03-.05.05-.12.07.17.9,3.21.03-.05c.05.23.1.46.16.68s.11.44.16.65c.7,2.55,1.43,5.06,2.2,7.52.77,2.47,1.45,4.82,2.05,7.06.03.08.05.15.06.2,0,.05.03.09.06.12v.12ZM33.07,12.17c.44.02.9.02,1.36,0s.92-.02,1.38-.02c-.08-.31-.17-.67-.26-1.09-.09-.41-.19-.84-.29-1.28-.11-.44-.21-.9-.32-1.36-.11-.46-.22-.9-.33-1.31-.02-.07-.04-.18-.06-.33-.03-.16-.04-.27-.06-.33,0,.02-.01.07-.04.17s-.04.16-.04.17c-.13.44-.26.92-.39,1.42-.12.5-.24.99-.35,1.47-.11.48-.21.93-.31,1.37-.1.44-.2.81-.3,1.12Z"/>
      <path d="M58.54,1.05v.69c.01.97.02,1.9.02,2.79,0,.89.01,1.75.04,2.59v.12s.03.1-.05.15c-.02.02-.03.02-.04.02,0,0-.03.02-.06.05-.02,0-.02,0-.02-.03l-.02-.03s0,.07-.03.07c-.07.02-.14.02-.22,0h-.12s0,.02,0,.02c-.03,0-.04,0-.02-.01.02,0,0-.01-.02-.01l-.03.02c-.12.1-.27.13-.47.1h-.35c-.58,0-1.24,0-1.98,0-.75,0-1.46.02-2.13.06h-.39c-.07-.03-.17-.05-.3-.05-.02.62-.03,1.24-.04,1.85-.01.61-.03,1.13-.07,1.58,0,.17,0,.25.02.26.02,0,.03,0,.05-.04-.04,1.35-.06,2.7-.08,4.07-.02,1.36-.05,2.74-.08,4.14-.05.05-.08.11-.1.17h.05s.02.04-.03.06c-.05.03-.06.05-.02.09h.1c0,.1,0,.19-.03.27-.02.08-.03.17-.05.25-.03,0-.07.02-.1.05-.18-.03-.39-.03-.62,0-.23.03-.44.07-.64.1l-.02-.02s-.05-.04,0-.12c-.02,0-.03,0-.05.02s-.04.02-.07.02c-.02-.03-.04-.06-.06-.09-.02-.02-.04-.05-.06-.09-.08-.15-.11-.3-.07-.44v-.37c.04-.79.06-1.61.07-2.47,0-.85.03-1.73.07-2.61,0-.05,0-.07-.02-.07.02-.23.02-.46,0-.68-.02-.22,0-.45.03-.68h.05c.04-1.36.07-2.74.1-4.12.03-1.38.06-2.77.1-4.17.03-.33.05-.65.05-.97s.01-.65.03-1v-.1s-.03-.06-.02-.12v-.2c0-.12-.02-.2-.07-.25,0-.23,0-.46-.01-.68s0-.45.04-.68c.03,0,.07,0,.12,0s.1-.02.15-.05c.02-.03.04-.05.07-.05h.1c.16,0,.35,0,.55-.01.21,0,.39-.01.56,0h.15v.02s0,.05,0,.05c.54-.03,1.1-.05,1.69-.04.58,0,1.17,0,1.76,0,.1,0,.18,0,.26-.01.08,0,.15-.01.24-.01h.2s.11,0,.23,0c.12,0,.2,0,.23-.02.15-.03.23-.06.25-.07.2,0,.37,0,.53-.01.16,0,.33-.01.51-.01.13,0,.23,0,.3.03-.02,0-.02.02-.02.05s-.02.06-.05.07v.22s0,.06-.01.07c0,.02-.01.04-.01.07v.17ZM57.12,5.92s.06-.04.07-.01c.02.02.04.04.07.04v-1.79s0,.05.02.05c0,0,.01-.03.01-.1,0-.23,0-.5-.01-.82,0-.32-.01-.65,0-.99v-.25h-1.45s-.02.02-.02.02h-.25s-1.28,0-1.28,0c-.05.02-.06.04-.03.07-.31.02-.62.02-.92.02-.3,0-.6,0-.88.02v.42s0,.02,0,.02v.1c-.02.36-.04.72-.05,1.09-.02.37-.03.77-.03,1.21,0,.02,0,.05.02.09.02.04.02.1.02.18,0,.13,0,.27,0,.4,0,.14-.02.27-.05.4l.05-.02.05-.02h.67s.02-.04.07-.07h.22c.25,0,.48.01.69.03.21.02.41,0,.59-.02.02,0,.02-.02.02-.05.36-.02.74-.02,1.13-.02.39,0,.76-.01,1.11-.05l.15.1v-.05Z"/>
      <path d="M68.82,20.42c-.34.01-.7.04-1.05.07-.35.03-.7.06-1.05.1-.02-.02-.03-.02-.05-.02-.33-1.2-.64-2.33-.95-3.38-.31-1.05-.63-2.17-.95-3.36-.26.02-.51.03-.75.04-.24,0-.46.01-.65.01h-.25l.05.02c-.33-.02-.65-.03-.96-.03-.31,0-.62-.02-.94-.05-.33,1.18-.66,2.3-.97,3.36-.32,1.06-.64,2.17-.97,3.31l-.05.05c-.34-.03-.69-.07-1.05-.11-.35-.04-.71-.07-1.07-.09.02-.03.02-.07.02-.1v-.05s.06-.07.07-.11c.02-.04.04-.1.08-.18.32-1.1.66-2.26,1.03-3.47.37-1.21.75-2.45,1.14-3.71.39-1.26.78-2.52,1.17-3.81.39-1.28.77-2.55,1.13-3.82.1-.33.19-.66.29-.99.09-.33.19-.65.29-.96.1-.38.2-.75.31-1.12.11-.37.23-.74.36-1.12l.03-.05.05-.12.07.17.9,3.21.03-.05c.05.23.1.46.16.68s.11.44.16.65c.7,2.55,1.43,5.06,2.2,7.52.77,2.47,1.45,4.82,2.05,7.06.03.08.05.15.06.2,0,.05.03.09.06.12v.12ZM61.66,12.25c.44.02.9.02,1.36,0,.46-.02.92-.02,1.38-.02-.08-.31-.17-.67-.26-1.09-.09-.41-.19-.84-.29-1.28-.11-.44-.21-.9-.32-1.36s-.22-.9-.33-1.31c-.02-.07-.04-.18-.06-.33-.03-.16-.04-.27-.06-.33,0,.02-.01.07-.04.17s-.04.16-.04.17c-.13.44-.26.92-.39,1.42-.12.5-.24.99-.35,1.47s-.21.93-.31,1.37c-.1.44-.2.81-.3,1.12Z"/>
      <path d="M74.31,12.87c.59,1.22,1.19,2.47,1.82,3.75.62,1.28,1.23,2.54,1.81,3.78-.31,0-.62,0-.92-.02-.3,0-.61-.01-.92-.01h-.17c-.31-.61-.62-1.26-.93-1.96-.31-.7-.62-1.38-.93-2.04-.03-.07-.06-.1-.07-.1-.1-.18-.21-.37-.32-.56-.12-.19-.21-.4-.29-.63.03,0,.05,0,.05-.03-.18-.38-.37-.76-.56-1.14-.2-.38-.39-.76-.59-1.13-.04,1.13-.06,2.26-.07,3.38-.01,1.12-.03,2.24-.05,3.38-.02.03-.04.06-.06.07-.03.02-.04.04-.04.07h.07s0,.06-.05.07c-.05.02-.06.04-.02.07,0,.03.03.05.1.05-.02.07-.03.14-.04.23,0,.09-.03.18-.06.26v.07s-.08.02-.2.02c-.18-.02-.37,0-.55.02-.19.03-.39.06-.6.1v-.02s-.02-.05-.02-.15c-.02.03-.04.05-.06.05s-.04.02-.04.05c-.03-.03-.06-.06-.08-.09-.02-.02-.05-.05-.09-.09-.07-.18-.08-.34-.05-.47v-.34c.04-.84.06-1.69.08-2.55.02-.86.04-1.74.08-2.62-.02,0-.02-.02-.02-.05v-.05c0-.23,0-.45-.02-.67s0-.43.05-.64h.03c.04-1.38.07-2.77.11-4.18.04-1.4.07-2.81.11-4.23,0-.33,0-.66.01-.99,0-.33.01-.66.01-.99v-.15s0-.1,0-.1v-.22c-.03-.16-.05-.25-.05-.27,0-.21,0-.43-.02-.65-.02-.22,0-.46.03-.7.02.05.05.05.1,0h.15s.04,0,.07-.01c.03,0,.07-.01.1-.01.02-.02.04-.02.07-.02h.1c.15,0,.31,0,.48-.01.17,0,.35-.02.53-.04h.12v.07h.57c.15,0,.31,0,.48,0,.17,0,.35,0,.53.03.03,0,.07,0,.1.03.03.02.06.03.1.03.08,0,.16,0,.25.01.08,0,.16.02.25.04.05,0,.1,0,.15.01.05,0,.1.01.15.01.03.03.08.05.14.05s.1,0,.13.03c.08.03.17.06.27.09.1.02.2.05.3.09.08.07.16.12.25.15s.17.09.27.17c.05.03.1.08.15.12.03.02.07.04.1.06.03.03.07.05.1.09.03.03.05.06.06.09,0,.02.02.05.04.09,0,.03.01.05.05.05l.02.02c.03.1.05.14.05.12.02.08.04.19.07.32l.07.3c.03.18.05.34.06.49,0,.15.03.32.06.52,0,.16,0,.33.01.5,0,.17,0,.35-.01.53,0,.1-.02.2-.05.29,0,.13-.02.25-.08.37-.03.1-.06.19-.09.28-.03.09-.05.18-.09.26l-.03.05v.02l-.05.07-.05.17-.1.17-.1.15c-.07.1-.13.19-.2.28-.07.09-.14.18-.22.26-.26.34-.54.61-.82.79-.03.07-.06.11-.09.13-.03.02-.05.05-.06.09l-.12.12s-.03.02-.04.02c0,0-.02.02-.04.05l-.3.27-.02.05-.07.02-.15.12c-.08.07-.17.13-.26.18-.09.06-.18.11-.26.16l-.27.15-.1.07-.17.1-.32.12c-.07.05-.17.09-.3.12l-.17.12c.29.59.57,1.15.83,1.68.26.53.51,1.02.74,1.48.06.13.1.2.11.2,0,0,.01-.02.01-.07ZM74.83,2.05s-.09-.05-.12-.05l-.05-.02c-.07-.02-.12-.02-.16-.03-.04,0-.09-.02-.16-.05-.03,0-.06,0-.09-.01-.03,0-.06-.01-.11-.01h-.39s-.1,0-.16,0-.1,0-.14-.02h-.99s0,.22,0,.22v.47s0,.05,0,.05v.1c-.02.34-.03.71-.04,1.08,0,.38-.02.77-.04,1.18,0,.03,0,.06.02.09.02.02.02.1.02.23s0,.26,0,.39,0,.28-.03.44c-.02.31-.03.63-.03.95,0,.32,0,.64-.03.95,0-.02,0-.03.03-.03l.15-.1.12-.05.2-.07c.07-.07.13-.11.19-.13.06-.02.11-.05.16-.09.05-.03.1-.07.15-.1.05-.03.09-.06.12-.1.07-.03.12-.07.16-.1.04-.03.08-.07.11-.1l.07-.07.08-.07.15-.17.3-.29c.07-.05.12-.1.17-.15.05-.05.1-.1.15-.15l.1-.17.15-.1c.1-.13.17-.22.22-.27.03-.08.07-.13.1-.15.02-.03.03-.06.04-.07,0-.02.02-.04.04-.07l.05-.1v-.02l.02-.07.05-.1.15-.37s.02-.08.05-.14c.03-.06.05-.1.05-.13l.02-.07v-.05s.03-.2.03-.2c0-.13,0-.25,0-.37s-.02-.23-.05-.35v-.17l-.1-.3v-.17s-.02-.11-.02-.17l-.02-.17-.03-.05v-.07l-.02-.02s-.03,0-.05-.02c-.03-.02-.05-.02-.06-.02,0,0-.03,0-.06-.03-.05-.05-.16-.09-.32-.12l-.15-.05Z"/>
      <path d="M90.02.9c0,.26,0,.51,0,.75s.01.48.01.73l-.07.07h-.91s-.02,0-.02,0c-.02,0-.03,0-.05.01-.02,0-.03.01-.05.01h-.32s-1.73,0-1.73,0l-.08.07c-.34.05-.71.07-1.08.07v-.05h-.17s-.05.02-.1.02v-.02h-.12s-.07.02-.1.02h-.52s0,.37,0,.37v.12c-.02.34-.03.7-.04,1.06,0,.36-.02.76-.04,1.18.02.03.02.13.02.3v.79c-.04.9-.07,1.78-.11,2.62s-.06,1.58-.08,2.21c0,.17,0,.25.01.25,0,0,.02-.02.04-.05-.04,1.35-.07,2.69-.11,4.02-.04,1.33-.07,2.68-.11,4.04-.03.03-.05.06-.06.09,0,.03-.02.05-.04.09h.05s.02.06-.03.09c-.05.02-.06.05-.02.09h.1c0,.08,0,.17-.03.25-.02.08-.03.16-.05.25-.07,0-.12,0-.15.03-.25-.02-.49-.01-.74.02-.25.03-.49.06-.74.1v-.02s-.07-.04-.07-.12c-.05,0-.08.03-.1.07-.07-.05-.13-.11-.2-.17-.07-.08-.1-.16-.11-.23,0-.07-.01-.15-.01-.23v-.03s.03-.08.03-.13v-.16c.04-.79.07-1.6.09-2.44.03-.84.06-1.69.09-2.56-.02-.03-.02-.07-.02-.1,0-.23,0-.45-.02-.67-.02-.21,0-.43.03-.67.03.07.05.07.05,0,.05-1.33.11-2.67.16-4.03.05-1.36.1-2.71.13-4.05.02-.33.03-.66.04-.99,0-.33.01-.66.01-.99v-.12s0-.1,0-.1v-.17.05c-.38,0-.75-.03-1.11-.08-.02,0-.03,0-.04-.02,0-.02-.03-.03-.06-.05h-1.43s-.34,0-.34,0c-.07-.02-.12-.03-.15-.03h-.89c-.07-.04-.11-.06-.12-.08.02-.25.03-.49.03-.73,0-.24,0-.49,0-.75l.05-.05h.84c.84.02,1.64.03,2.4.03.76,0,1.53.01,2.3.03.79-.01,1.61-.02,2.45-.02.85,0,1.7,0,2.55-.02h.79s.05.05.05.05Z"/>
      <path d="M99.21.78c0,.26,0,.5,0,.74,0,.23.01.48.01.74-.03.03-.06.06-.07.1-.13-.02-.28-.03-.43-.03-.16,0-.32,0-.5,0-.02.02-.06.04-.12.07h-.3c-.2,0-.32,0-.36,0h-.07s-.02,0-.04.01c-.02,0-.09.01-.22.01-.08,0-.12,0-.12.01,0,0,.02.01.05.01-.53.02-1.05.03-1.57.05-.52.02-1.04.02-1.57.02v.37s0,.1,0,.1c-.02.35-.03.7-.03,1.06,0,.36,0,.76,0,1.18v1.13c0,.58-.01,1.18-.03,1.82-.02.64-.04,1.22-.05,1.75.26,0,.51,0,.74,0,.23,0,.46-.02.7-.02s.49-.01.75-.02.56-.01.89-.01h.49c.05.05.08.08.1.08v.03c0,.25,0,.46,0,.62,0,.16,0,.37.02.64-.07,0-.12.02-.15.05h-.57s-.07.05-.1.05h-.86c-.07.01-.08.04-.05.07-.33,0-.66,0-.99,0-.33,0-.66.02-.99.04,0,1.2-.03,2.37-.08,3.5l.03.02.02.02v.05c0,.1,0,.2-.01.3,0,.1-.01.21-.01.34h.02v.02s0,.05.02.05v.22c-.02.23-.03.45-.04.67,0,.21-.01.41-.01.59,0,.03.02.05.05.05v1.41c.7,0,1.41,0,2.13,0,.71,0,1.49,0,2.33,0l.2-.02h.22s.05.05.05.05c0,.28,0,.54,0,.79,0,.25,0,.49.02.74-.02,0-.05.02-.1.07h-.52s0,.02-.02.02c-.02,0-.03,0-.04.01,0,0-.02.01-.04.01h-.3c-.39,0-.69,0-.88-.02-.19,0-.42,0-.68.01-.08.02-.11.03-.07.05-.43.01-.85.03-1.28.03-.43,0-.84,0-1.23,0-.03.02-.06.02-.07.02-.02,0-.04,0-.07.03-.2-.03-.39-.05-.59-.05-.2,0-.39.02-.59.07v-.02s-.06-.07-.02-.15c-.03.02-.05.03-.06.04,0,0-.03.02-.06.04-.03-.05-.08-.11-.15-.17-.07-.11-.09-.23-.07-.34v-.35c.04-.87.06-1.76.08-2.67s.05-1.84.08-2.8c0-.18,0-.35-.01-.52s0-.33.04-.49c.04-1.35.07-2.71.11-4.08.04-1.37.07-2.76.11-4.15.02-.33.03-.65.04-.97,0-.32.02-.65.04-.97v-.07s0-.02,0-.02v-.03s-.02-.06-.02-.07c0-.1,0-.17-.02-.22,0-.15-.02-.24-.05-.27.02-.23.02-.46,0-.68-.02-.22,0-.45.03-.68h.17c.08-.03.18-.05.3-.06.11,0,.23-.01.34-.01h.02c.07,0,.14,0,.22.01.08,0,.19.01.32.01.44,0,.84,0,1.18,0,.35,0,.69-.01,1.04,0,.34,0,.71,0,1.1,0,.39,0,.84-.01,1.37,0,.13,0,.27,0,.41-.01.14,0,.27-.01.41-.01h.02s0,.03.03.05ZM93.76,11.44h.02s0,.05-.02,0Z"/>
      <path d="M100.93,14.39v-.1c.02-.16.03-.3.04-.41,0-.11.01-.21.01-.32,0-.11,0-.23.01-.36,0-.13.01-.3.01-.49-.02,0-.02-.02-.02-.05v-.22s0-.74,0-.74c.03-.89.07-1.73.1-2.53.03-.8.06-1.5.08-2.11,0-.13,0-.2-.02-.21-.02,0-.03,0-.05.04.02-.64.04-1.19.05-1.65.02-.46.04-.9.05-1.33.02-.43.03-.87.05-1.33.02-.46.04-1.01.08-1.65.03-.06.07-.11.1-.15h-.07s0-.06.04-.09c.04-.02.05-.05.04-.09-.02-.02-.03-.02-.05-.01-.02,0-.03,0-.05-.01.02-.08.02-.16.02-.22s0-.14.03-.22c.05-.02.09-.02.12-.02.25.02.47,0,.67-.02.2-.03.41-.06.64-.1l.03.02s.07.03.06.05c0,.02-.01.04-.01.07.03-.01.06-.02.07-.02.02,0,.04,0,.07-.02.03.03.06.06.09.09s.04.05.06.09c.1.1.13.23.1.4v.15s0,.11-.03.17c-.02.38-.03.67-.04.89,0,.21-.02.41-.04.59-.02.18-.03.38-.04.6,0,.22-.02.54-.04.95l.05.1c-.02.21-.02.42,0,.62.01.2,0,.4-.03.62h-.05c-.04,1.28-.07,2.58-.11,3.88-.04,1.31-.1,2.61-.18,3.91,0,.15,0,.27,0,.36s0,.18-.01.26c0,.08-.02.17-.03.26,0,.09-.01.22-.01.38v.07s0,.02,0,.02c0,.03,0,.05.01.06,0,0,.01.02.01.04,0,.08,0,.14.02.17,0,.15.02.24.05.27-.02.21,0,.43.02.64.03.21.02.42-.05.62-.02-.02-.05-.02-.11-.01-.06,0-.13.01-.21.01-.03.03-.07.05-.12.05-.02,0-.03,0-.04-.01,0,0-.03-.01-.06-.01-.2.02-.38.03-.55.04-.17,0-.37.01-.6.01-.03.03-.08.05-.15.05h-.02v-.08c0-.25,0-.49,0-.74,0-.25,0-.51-.02-.79.02,0,.02-.02.03-.05v-.37ZM103.03,20.41v.07s-.06,0-.07.01c-.02,0-.04.01-.07.01v-.03l-.1.02s-.07-.03-.1-.05c-.03-.02-.08-.02-.15-.02l-.02.05h-.02s-.03,0-.05-.03c-.08-.02-.18-.02-.31-.02-.12,0-.22,0-.28-.03-.05,0-.06.02-.02.05-.13-.02-.23-.03-.31-.04-.07,0-.19-.03-.33-.06v-.05.02-.05.07s-.03-.02-.04-.02c0,0-.02-.02-.04-.05,0-.03,0-.05-.01-.06,0,0-.01-.02-.01-.04-.02-.23-.03-.46-.05-.7-.02-.24-.04-.47-.07-.7v-.02s0-.02.02-.02v-.07s0-.06-.02-.07v-.17s0-.02.01-.02c0,0,.01,0,.01-.03v-.02s.06,0,.09-.01c.02,0,.05-.01.09-.01h.02c.07.02.11.03.15.04.03,0,.07.02.1.04,0-.02,0-.03.03-.05h.07c.12.03.18.04.2.03.02-.02.06-.02.12-.02v-.05c.15.03.31.05.48.04.17,0,.32,0,.46.04v.03h.02s0,.02.02.02v-.05s.07.02.07.05v.3c.01.23.04.46.06.69.02.23.04.46.06.69,0,.03,0,.05,0,.04,0,0,0-.01-.02-.01.01.05.02.1.02.15v.15Z"/>
    </g>
  </g>
</svg>